/* XPM */
static char *_7e746b7ba184bb1abc38459ff996477biwrGsZMLSO9xw5R[] = {
/* columns rows colors chars-per-pixel */
"64 64 63 1 ",
"  c #6A6A6A",
". c gray42",
"X c #6C6C6C",
"o c #6D6D6D",
"O c gray45",
"+ c #767676",
"@ c #777777",
"# c gray48",
"$ c #7B7B7B",
"% c #7C7C7C",
"& c #818282",
"* c #838383",
"= c gray53",
"- c #888888",
"; c #8B8B8B",
": c gray55",
"> c #8E8E8E",
", c gray56",
"< c gray57",
"1 c gray58",
"2 c gray59",
"3 c #979797",
"4 c #989898",
"5 c #9B9B9B",
"6 c gray61",
"7 c gray62",
"8 c #A0A0A0",
"9 c #A2A2A2",
"0 c #A5A5A5",
"q c gray66",
"w c #A9A9A9",
"e c #ACACAC",
"r c #AFAFAF",
"t c gray69",
"y c #B1B1B1",
"u c gray70",
"i c #B7B7B7",
"p c #B9B9B9",
"a c #BBBBBB",
"s c #BCBCBC",
"d c gray75",
"f c #C0C0C0",
"g c #C3C3C3",
"h c gray77",
"j c #C8C8C8",
"k c #CBCBCB",
"l c #D1D0D0",
"z c gray83",
"x c gray84",
"c c #D7D7D7",
"v c gray85",
"b c gainsboro",
"n c #DDDDDD",
"m c #E1E1E1",
"M c gray90",
"N c gray91",
"B c gray92",
"V c #ECECEB",
"C c #EEEEEE",
"Z c #EFEFEF",
"A c #F8F8F8",
"S c #FBFBFB",
"D c white",
/* pixels */
"++++++++++++++++++++++++++++++++++++++++++++++++++++++++++++++++",
"+O   oooo o o oo  ooo o o ooo o ooo  o oo  o o  ooo o o oo  o O+",
"+ &+#++++++O+O++++O++++O+O+++O++++O+++++O+++++++O++++O+++++#+% +",
"+ +==========================================================#o+",
"+o#===-===============================================-==-===%o+",
"+o+===#################################################%#%&==#o+",
"+o+==#<=--=============================================---#==+o+",
"+ +==#=24444242244242244222424242244222244242244242424244>#==+o+",
"+o+=-#-44444444444444444444244424444444444444444444242444>#==Oo+",
"+ O=-#-442>->-->>-->>->-->->->->>-->>-->->>-->>->->>>>242>#==+o+",
"+o+==#=44>72744424422424444244442442242242244244222422>24=#==+ +",
"+ +==#=44-2wwwwwwwwwwwwwwwwwwwwwwwwwwwwwwwwwwwwwwwwww7>44=#==+o+",
"+o+==#=22>7wwwwwwwwwwwwwwwwwwwwwwwwwwwwwwwwwwwwwwwwww7>42=#==+ +",
"+o+==#=24-4ww07477477747747774744747777747777447770ww7-42=#==Oo+",
"+oO==#=44>4ww7e0ewww0wwwww0wwwwwwwww0wwwwwwwwwwew070w4-44=#==+o+",
"+ +==#=44-4ww40ppspppppppsppsppppspppppppppppppppw7ww2>42=#==+ +",
"+ +==#=24-4ww7epspspsspsspssppsppspspssppsspppsppy7ww2>44-#==+ +",
"+o+==#=24>4ww4wpppeeeeeeeeeeeeeeeeeeeeeeeeeeeeppse7ww4-42=#==Oo+",
"+ +==#=24-4ww7wspeppfsssspssssssssspsssssssssiyppw4ww2>44=#==+o+",
"+o+==#=42>2ww70ppepkkkkkkkkkkkkkkkkkkkkkkkkkksespw7ww4-44=#==+o+",
"+oO==#=24-4ww7wspyskkkkkkkkkkkkkkkkkkkkkkkkkkheppw7ww2-42=#==+ +",
"+ +==#=44>4ww4wpseskkkfsffhhhffsfffffsffffkkkfespw4ww2>42=#==Oo+",
"+ +==#=24-4ww7wppeskkflvvcvvvvccccccclcvvlfkksespw7ww2>44=#==+ +",
"+o+==#=42>4ww4wpseskksvnnnnnnnnnvnnnnnnnnnfkkseppw7ww4-42=#==+o+",
"+ +==#=24-4ww70ppeskkfcnnnnnnnnnnnnnnnnnnvfkksespw7ww4-44=#==+ +",
"+o+==#=24>2ww7wpseskkfcnnnnnnnnnnnnnnmnnvcfkksepp07ww2>42=#==Oo+",
"+ +==#=44-4ww4wpseskkfcnnnCMMMCNNNNNCCmnncfkkseppw4ww2>44=#==+o+",
"+ +==#=44>2ww7wppepkkpcnnnCCCCCCCCCCCNmnncfkkpespw7ww4-44=#==+ +",
"+oO==#=24>2ww7wpseskkfccnnNCCCNZCCCCCNnnncpkksespw7ww4-42=#==+ +",
"+o+==#=44-4ww4wsseskkfcnnnMCCCZZCCCCCNnnncfkksepsw4ww2>42=#==Oo+",
"+o+==#=24-4ww70ppeskkfcnnnNCCCASSACCZNnnncfkksespw7ww4-42=#==+o+",
"+ +==#=24>2ww7wppeskkfcnnnCCCCSSSSCZZNnnncfkkpepp07ww2>42=#==+o+",
"+oO==#=44>4ww4wppeskkfcnnnNCCCSSSSCCCNnnncskksespw7ww2>44-#==Oo+",
"+ +==#=44-4ww7wpseskkpcnnnNCCZSSSACCCNnnvcfkkpessw4ww4-42=#==+o+",
"+ +==#=24-2ww7wppepkkfcnnnNCCCCCCCCCCNnnncfkkseppw7ww2>44=#==+ +",
"+o+==#=44>2ww7wpseskkfcnnnMCCCCCZCCCCNnnncfkksepp07ww4-44=#==+o+",
"+ +==#=24>2ww70ppeskkfcnnnCCZZCCZZCCZNmnncskkseppw7ww2-42=#==+ +",
"+o+==#=24-4ww7wpseskkfcnnmCCNMNCNNNNNCmnncfkkseppw4ww2>42=#==Oo+",
"+ +==#=44>2ww4wpseskkscnnnmnnnnnnnnnnmnnnvfkksespw7ww2>42-#==+o+",
"+ +==#=44-4ww7wppepkkscnnnnnnnnnnnnnnnnnnvfkksespw7ww4-42=#==+ +",
"+oO==#=24-4ww7wpseskkfvnnnnnnnnnnnnnnnnnnvfkkseppw7ww4-44=#==Oo+",
"+o+==#=44>4ww4wsseskkflvvvcccccccccccccvvlfkksesp07ww2>42=#==+o+",
"+o+==#=24-4ww70ppeskkkffffffpffffssfffffhfkkkfeppw4ww2>44=#==+ +",
"+ +==#=42>2ww7wppeskkkkkkkkkkkkkkkkkkkkkkkkkkhyppw7ww4-44=#==+o+",
"+oO==#=24-4ww4wppepkkkkkkkkkkkkkkkkkkkkkkkkkkhyspw7ww4-42=#==+ +",
"+ +==#=44>4ww7wspepfhfspsssspssssssspssspsfhfiespw7ww2>42=#==Oo+",
"+ +==#=24-2ww7wpsiyeyeeeeeeeeeeeeeeeeeeeeeeyyeppsw7ww4-42-#==+o+",
"+o+==#=42>2ww7wppppspppsppsspssppsspspsppspspppppy7ww2>42=#==+ +",
"+ +==#=24-4ww70ppppppspppppspppppppppppppppppppppy7ww4-44=#==Oo+",
"+o+==#=24>4ww70eyewwwww0wwwww0wwwwwwwww0wwwwwweyy07ww4>42=#==+o+",
"+ +==#=44>2ww07777477477777477477477747774747777770ww4>44=#==+ +",
"+ +==#=44-4wwwwwwwwwqwwwqwwwwwwwwwwwwwwwwwwwwwwwwwwww9>44=#==+o+",
"+oO==#=24-4wwwwwwwwwwwwwwwwwwwwwwwwwwwwwwwwwwwwwwwwww7>42=#==+ +",
"+o+==#=44>24744442244242224242424224244244244224427972>44=#==Oo+",
"+o+==#=442>>>>>-->>-->->->->->->->>->-->->>-->>->->>>><44-#==+o+",
"+ +==#-24444244444444444444444444444444444444444244424444<#==+ +",
"+ +=-%-44444424422424422424242424422424422424422424244444<%-=+o+",
"+ +==%--<-=======================-========-==========--<>-#==+ +",
"+o+==&%%################################################%#===#o+",
"+o#==-==-====================================================&o+",
"+ @==========================================================%o+",
"+ ##%#++O++++O++++O++O+++O++++O++O++O+O+++O++O+++O++++O+++#&%+o+",
"+O.ooo o o ooo   ooo oo o  o ooo oo o ooo o  ooo o ooo o oooo O+",
"++++++++++++++++++++++++++++++++++++++++++++++++++++++++++++++++"
};
