/* XPM */
static char *fe644cb4992d44dbe6f964cdaeb30626VJWmoO1DFXjz3UK8[] = {
/* columns rows colors chars-per-pixel */
"64 64 162 2 ",
"   c #1F130F",
".  c #220E0A",
"X  c #24130D",
"o  c #2A160E",
"O  c #2E180F",
"+  c #251713",
"@  c #2A1611",
"#  c #271811",
"$  c #2D1A13",
"%  c #2E1E19",
"&  c #331D15",
"*  c #381E15",
"=  c #321F19",
"-  c #362016",
";  c #3A2216",
":  c #35221B",
">  c #3B251C",
",  c #3D291E",
"<  c #342521",
"1  c #3A2720",
"2  c #3E2A22",
"3  c #412616",
"4  c #40261B",
"5  c #422A1D",
"6  c #4A2F1F",
"7  c #51311C",
"8  c #432D24",
"9  c #492F24",
"0  c #432E28",
"q  c #482F28",
"w  c #453126",
"e  c #4B3225",
"r  c #46322A",
"t  c #4B352B",
"y  c #4F392C",
"u  c #533520",
"i  c #593723",
"p  c #5C3B27",
"a  c #513729",
"s  c #533A2C",
"d  c #5A3D2D",
"f  c #4C3731",
"g  c #4D3932",
"h  c #543D33",
"j  c #593E32",
"k  c #513E39",
"l  c #57412D",
"z  c #5F422F",
"x  c #564136",
"c  c #5B4235",
"v  c #54413A",
"b  c #5C443A",
"n  c #5D483D",
"m  c #66432F",
"M  c #6A432D",
"N  c #624535",
"B  c #654836",
"V  c #61463A",
"C  c #644A3C",
"Z  c #6B4E3C",
"A  c #724B35",
"S  c #6D503E",
"D  c #73533D",
"F  c #594641",
"G  c #5E4941",
"H  c #604741",
"J  c #644D42",
"K  c #6A4F41",
"L  c #675146",
"P  c #6C5243",
"I  c #6C554B",
"U  c #735544",
"Y  c #765946",
"T  c #7C5A44",
"R  c #715649",
"E  c #755B4B",
"W  c #7A5D4B",
"Q  c #705750",
"!  c #745D52",
"~  c #7A5E51",
"^  c #7D614E",
"/  c #766053",
"(  c #7D6252",
")  c #7D6559",
"_  c #7E685E",
"`  c #825B44",
"'  c #815E49",
"]  c #83624E",
"[  c #826553",
"{  c #886650",
"}  c #866855",
"|  c #8C6B55",
" . c #81665A",
".. c #856A5B",
"X. c #866C5D",
"o. c #8A6D59",
"O. c #8B6E58",
"+. c #8B6D5A",
"@. c #8D6E58",
"#. c #8D6D5A",
"$. c #8D6D5D",
"%. c #916B56",
"&. c #916E58",
"*. c #916F59",
"=. c #8E725E",
"-. c #90705C",
";. c #92735D",
":. c #93745F",
">. c #93765F",
",. c #98745C",
"<. c #95785E",
"1. c #836E65",
"2. c #886E61",
"3. c #8B6E61",
"4. c #867065",
"5. c #8A7261",
"6. c #8E7461",
"7. c #8F7565",
"8. c #8E7469",
"9. c #967460",
"0. c #937564",
"q. c #957767",
"w. c #997663",
"e. c #987764",
"r. c #937966",
"t. c #967A65",
"y. c #997863",
"u. c #9B7B64",
"i. c #9C7C67",
"p. c #917669",
"a. c #927769",
"s. c #94796A",
"d. c #9D7B68",
"f. c #9B7C6A",
"g. c #9F7F69",
"h. c #A17E69",
"j. c #9D816C",
"k. c #9D826D",
"l. c #9B8175",
"z. c #98837B",
"x. c #A3806B",
"c. c #A2826D",
"v. c #AB876F",
"b. c #A28772",
"n. c #A48572",
"m. c #A08375",
"M. c #A68A75",
"N. c #A78877",
"B. c #AA8A75",
"V. c #A5897A",
"C. c #AC8E7B",
"Z. c #B2947C",
"A. c #B9967F",
"S. c #A38B82",
"D. c #A68C80",
"F. c #AD9285",
"G. c #B59582",
"H. c #BB9A84",
"J. c #B0968B",
"K. c #BE9D88",
"L. c #C09D85",
"P. c #C2A08B",
/* pixels */
"+.B j h g y % X $ r A M A ] ' y.,.b.X.b s y t r 8 e 2.Z.=.+.D e 7 8 = s 0 0 h f q : = 4 9 8 q q s V S h.P K } U [ 3. .9.N.h.' D ",
"[ d V a g g :   # y A T %.%.w.x.u.5.5.b x s g t 8 r ( s.[ W N 8 5 e t h 8 < q 8 0 8 > & 8 q j j a s s P e j V d Z ~ W %.3.~ #.~ ",
"b J j 9 G n - X $ t k.#.| 9.d.| y.^ c s x x n g 8 ; b ( C C k = ; e 8 h 0 > r g t g 8 ; V H H H j K b d 9 e t s V ~ 2.U %.J b j ",
"s f j C h h $ $ , J r.) } #.q.#.=.^ l l s x x g r ; s E J H G g h n s y e 8 0 f t r 8 9 j  .! I H J J b C C b c j b J p i 9 a h ",
"0 0 g H v r = X > R E I D.F.p.*.q.( P a 9 8 t q > O w c j r r 2 e w w y 8 w 2 : : 0 8 y J G G F J b b k j h h h 7 n c s 7 p s g ",
"g g v g h 8 - $ : y h J K 1._ E ! C C e a q f 8 > O ; h y , < 2 > $ > 2 > > $ @ : , , w 2 2 g v H j h g r 2 , r , 2 2 r u b g g ",
"% < < = : - $ O = 8 0 w f b v h j y K t t q = 8 8 * , 8 2 f v F v f r : : : = $ % $ : 1 2 2 2 l f q = & : = = $ o $ : = $ % = % ",
"    + + # X @ O o @ @ # % < 1 r c J I s e q 8 = 8 * > , f g g f g r 0 0 r 0 > : : : < 2 < 2 2 w 8 8 1 1 $ $ $ $ O % $ X $ . . @ ",
"$ + % # @ : @ $ $ o o o $ < 1 w x b n y 8 5 8 1 1 * 8 r t k k r r 2 2 g r w > % & % : ; ; 2 2 2 2 8 - ; = > = : % % : : : $ # % ",
"v r t 0 = - * = & & o $ $ : < > e j c e 9 8 q 8 * * a 9 a k 8 = 2 2 > , , 2 , : : , : , - - 2 2 2 0 > > - = 0 2 8 2 r 4.G t f r ",
"J j e C 8 & - $ * * $ O : 2 : : 5 e c d s 8 0 q = * 3 8 8 8 * * - & - - ; 6 5 , 2 5 - ; ; & > , > ; > 0 0 8 g s J I ! 0.(  .f.) ",
"P e 9 n h w $ $ = * ; , > 2 2 2 6 e c y 5 e r 1 & & 8 9 9 * * 4 - & ; ; w s y y B n , ; ; & w c j a b )  .R  .) 4.0.) I ) l.J.r.",
"( K s b g t : : - = 8 a n C n s V a e 4 ; > > 8 = O 8 j j V b b y 6 e e c l x s l S s 5 ; ; y L W Y ( ~ [ P R } 9.j.W B [ s.V.( ",
"Y a j C x h $ : o o - a s P B C V s e 8 ; * 9 8 > = 8 s [ [ *.2.( ! P c L C P c C C l e , 5 c P W T ] [ Y U Z Y ..) W 5.x.k.P X.",
"N j C H v g , - = - - a l E Y R I J j h t b t r r 0 q V q.} [ S X.r.../ E P n C J n y 7 B S P R ^ #.] ] Y W N c P Y +.$.U b s j ",
"s q s C L J r 2 , > , h S P ^ ^ W 2. .! ! b r r r 0 e J ..[ $.] =.u.r.;.r.( x x l r , w S c P ^ W ;.D W } 0.B B i c U c s t 6 e ",
"9 h H I G F r 8 , 2 , c ^ P S ^ / =.+.( ( ) x w t 8 e P E U U | 0.| ^ ..0._ v r w : : , a e b W W =.D E X.X.K e 3 C c e e a 5 ; ",
"q j H Q j f 2 8 2 , , w C C ^ / S ( ^ R S I x l y 8 6 E U #.+.T W ] ;.#.{ ) v 1 < , : 2 c c V =.+.E P L ! P c 8 5 c s 5 ; 4 e e ",
"8 q H 2.G 0 2 0 w ; - , e l D D Z ^ S R n L x r t ; e p.9.W S Z W [ +.$.V.4.b % $ : 2 , c c E ^ ( C B n ! P h q 5 e 5 ; ; 6 h j ",
"q 8 j C n 0 1 : ; & - , e l ^ ( C ^ P L x n v l a 9 e V.t.] C.| A W D E ( I g : % < > , c s N Y / P l s P V e * & & - ; , 5 t h ",
"q 8 j V a r 1 > : > ; ; e y ^  .) +.| ..n / l l s e a Z.M.#.L.,.M ` %.[ ( J t $ $ $ & , y s C W E P e t C h q & & = ; - ; 6 j t ",
"f 9 s j e f 1 1 : > : , s l ^ ] ..5.9.;.X.^ J x s 5 s M.G.$.H.h.A A  .} U j 8 $ $ o O & e d I U v G e h t 0 1 & = - * > e a g s ",
"q q 8 8 e 4 = 2 > > , t h x c S ..s.r.l.M.D n l y e e 9.;.{ H.v.` M | +.P n e . X O & 5 x s x h t r r g r 0 & & = = 5 r a a y t ",
"4 q 8 8 8 1 = 2 > : - > ; , 6 e S X.Y +.r.B l l a 5 p Z Z U i.:.{ P D Z j j ; . X o * ; s y t r r r 2 0 1 q = = 2 8 8 w y 6 e r ",
"* 4 q q 8 > : w 1 : > > > 5 5 3 s [ 0.r.r.P c a w ; 7 7 T B.n.=.$.T Z B e 5 * X o . * 3 a t t t r 9 > * & * * * 1 8 4 8 q 8 q 8 ",
"j f b e 8 = : 2 2 , , > , e c C N U f.+.2.C c a 3 3 m D #.P.H.b.E Y Y [ a 3 * o X = * 8 6 ; 6 8 r q * O @ * & & * * * > t q a 9 ",
"b k k j y : : 0 w 5 , , 6 6 a c E [ W E ( E C c 5 3 B } ] *.A.L.{ U T T N B $ . $ = & a e e 9 9 q q 8 8 8 8 * * 0 4 8 h V R 2. .",
"P j j k t , : r r , ; ; ; ; 5 e c ( 6.B W [ P d 6 i m l p U %.,.b.W ] [ ] h & o X * 8 R r.-.W P J b s s 9 8 r t j b R X.5.W =.0.",
"R j h h f 1 < 0 r , - - , ; ; y y U t.Y ( ( E B B Y 7 7 p =.,.h.v.f.C  .! f % $ + 8 _ z.} %.U U ] 2.2.Z J N 8 7 l l { x.:.D <.u.",
" .I h b h 8 r w , > - - , 6 ; y a N | S r.[ Z B S W T p m | A.h.W Z h b f v < + < g S.8.f.5.| ` 9.d.5.V j V 8 8 l ( j.j.j.} :.S ",
"e.R a b 8 = f t w , - & 5 s e 5 6 s P W q.U Y R +.U D T T ;.*.' B d J t 2 k <   + r S.f.p.#.#.' #.f.;.W J j t e , / O.j.;.;.{ ^ ",
"K 8 * j 0 1 v g w , : ; a l w , e s W 9.h.E +.[ U W } b.h.,.*.U { ] b v 2 g %   + k d.w.( e.T { { f.3.R j h r > > l M.B.#.<.^ z ",
"u 8 = f 2 0 j f r = & 4 8 8 w 8 s N K h.K Z  .Y [ 5. .,.M.h.' D #.B j h s f % @ = r A M A ] ] w.;.b.X.n s h r 0 8 e 2.Z.+.+.D r ",
"> a e j 8 1 r 0 q 8 > * 8 r b x a j s K a j N s Z ~ W %.3.~ #.~ [ d V a g h = . o y A T %.%.q.h.u.6.=.c h a g f 9 r ! s.[ W B 8 ",
"> e w h 0 > r g f f 8 * b H G G s J b j 9 e a a j  ...U %.J c c b C j q G G % X $ r l.*.%.9.d.| u./ c s h b F a 9 > c ( C C j * ",
"h b t s r 8 0 t f f 9 e j [ ! I J J J C V C n v b b C p i e t h s f j G h h $ $ , J r.) { +.q.#.+.^ c l h j v g 8 ; d E J n G f ",
"9 8 8 t 8 r 8 : = q 8 a P G G G J j H k h h h h u n j s 7 p g g r 2 g G v r ; X 1 U R R V.F.0.=.6.( P y w 9 t r > & 8 x x r 0 0 ",
"> : > 8 > : $ @ = 1 > q 2 r g v G j k t r , , w > 8 8 r 7 n g y g g v f h 2 - @ : t h J L 1._ ^ / Z Z e a w r 8 4 $ ; h y > 1 2 ",
"v f r > > : = $ = @ = 1 1 2 2 g f 8 > * : = = $ o o & > $ = : % % < < : : * # $ & 2 0 w f v v g x t Z t t w > 2 8 ; 2 8 2 r v F ",
"g r w 8 q 8 1 = = = 1 > < 2 2 2 0 8 1 2 $ $ = $ $ $ + X # X   #     + # o X O $ O # o # : < 1 r x Z I s e w 8 > 8 & < 2 g g g g ",
"r w 2 r r r , % % - : : > 2 2 2 8 , = ; = < - : = $ : : : # o $ % + < + @ = @ $ & o o o $ < 1 w j n n a 8 1 8 1 , * 8 r t g k r ",
"2 2 ; , , 2 , : > > > > & , 2 , , 8 > > - - 0 2 0 0 t 4.G t y r v 2 g 2 = - = & & & o @ % < < > 8 j j a 8 0 8 0 & ; e e e b q : ",
"- - - - - , , , , 5 - ; - ; ; , > & , 8 8 8 g s H I ! 0.(  .f.) S d t G 8 * & = - * & O - 1 : - , s N j s q q q = * ; 8 9 8 > & ",
"- & - ; u l y y b B 5 - - & 6 c j y C (  .I  ._ 2.8.) I ) l.J.s.P e 8 n h w $ + = - ; > > 8 2 , 9 e j a 5 9 q 1 * $ 5 e 9 * & > ",
"a 9 w e l l x s l P a 5 - ; s P ' U ~ ~  .P R } 0.f.W C ) f.V.~ [ Z h b s r = : - = 8 t n C b s N t 9 5 , * 3 8 * @ 4 b j V b b ",
") / P c P n S b C P l t 3 5 b P W Y { { E U Z Y } } W 6.m.f.P +.R a j G k h = : o o - a s P C C N s w 6 * & 9 2 1 * 8 s [ [ *.$.",
" .r...^ / P b P n C u y N P P U ( %.{ W U W N c P Y ..$.U C s d N j V V j h < : & > - s l E U R P J j j f G t r r q q V 8.| [ K ",
":.i.r...r.) x l h e , 8 C n P W ^ ;.D W | 9.N V i c Y c y a 9 e s e h C J J t 8 > > , s S U ^ ^ ^ ..) ! ! b r r r q q J  .] $.[ ",
":.{ ^ =.6._ v r 0 : > 2 y e B E W =.S E ....Z 6 , B b w y u 5 ; q j b I G F f w 2 , , c / P P ^ W 0.} [ ^ / x r y w w S E U D | ",
"W ] =.#.{ ) v 2 1 : : 2 c c C 6.+.E P P / P b 6 3 b a 5 ; , e 8 q k J Q v f 1 2 2 2 > 6 C Z E ^ K ) ^ E L I x r t 5 w E U =.+.T ",
"W { | $.C.1.b % % % 2 2 c c Y ^ ( C N n / S h t 5 e 6 ; ; 8 s h 8 q C  .G w 2 w 2 , - ; u l D S Z Y P E n P x y t > e i.9.W Z Z ",
"A W Z E ( I g : % : : , b s c E ! P j h L n e - - & - ; , 5 t j 9 8 b V n w : : : - - , r l ^ ( C E Y P b C x y y e e M.f.W Z.| ",
"M ` %.[ ( L t $ $ $ & 3 t p C W ! R q a H h q & O - ; - > 9 x a t 8 j j y r 1 , > , ; ; w s ^ } ) +.} ..C / x h s e a Z.v.+.K.y.",
"A A ....I j 8 + o o O - e p I U k G e s f q * O - - = ; e e g s a q k j e y 1 2 : : ; , l l E ] _ 5.r.;.X.T L x s 8 a B.G.#.G.h.",
"` M | #.P b 8 o X & & 5 j h h x r f 0 f q q = & = : 8 r a t s t q 9 8 8 t , : 2 : ; , l x c b S +.k.p.l.M.D C a t e 7 s.;.{ H.v.",
"{ P D C l j > . X o - ; g y y r q q 2 0 1 q 1 = 2 2 0 w a 7 e w 4 q 5 8 , , % , , : : % ; , 6 6 S ..Y +.r.B z l a 5 s Z Z D i.0.",
"$.` Z N 6 5 * X X X * ; a t y t t r 1 * = * = * > 8 8 8 w w w , 4 4 q q q , = 8 , ; > > , , , 3 s { 0.p.r.P c s 9 ; 7 7 ^ B.c.=.",
"W U E [ i 4 $ # X & * 9 6 ; 5 8 8 q = O & * O & * * & > t t s e h t b q 8 & = 8 , , , > 5 e c C c Y r.5...C m s ; 3 N A | P.H.b.",
"{ U E T N B % . & & O a e e e w r e 8 8 4 9 * * 8 4 8 s b E +.) j h j j f = > 0 w , , , 6 6 y c E ] W W ( E C c 3 3 B | ] %.A.L.",
"n.T ] [ ^ x : + X & 9 R w.;.E S C b a s 9 8 q t h n U X.=.W =.=.I b k h t 1 < 0 r , ; ; ; ; , e c ^ 6.B W ) P v 7 s M l p U %.<.",
"B.f.V  .I g < + $ 0 ) z.} | P U [ $.+.Z V N 8 a j c ..n.<.D <.j.I j g h s 2 > 0 r , - - 5 ; ; e a U r.Y ( ( T B N Y 7 7 i =.,.x.",
"' Z d b f F <   : f S.p.f.9.| ` q.f.5.V z V 5 8 a  .i.f.x.} =.S ) P j c h 2 r 0 , : - ; 5 8 4 t a b #.Z 0.{ Z B P W T p m | A.h.",
"B d C t 2 k <   + r l.l.q.*.| ' $.e.9.Q K j t e 5 / +.<.,.:.{ W r.E h b 8 : f r w , * & 8 s e 5 8 s P W r.U Y P O.U U T ' ,.%.' ",
"{ ] b h r g %   + v h.w.~ e.Y | { d.2.I j j 8 8 > l M.B.| <.^ N P > > h q 1 v g 0 2 ; ; a j e ; e d W ,.k.E $.] U W } b.x.,.-.D "
};
