/* XPM */
static char *c85365b8a36644e6d74e59cf996708e3fBSKY30yo18sgpF9[] = {
/* columns rows colors chars-per-pixel */
"64 64 140 2 ",
"   c #3B2A04",
".  c #412F03",
"X  c #463105",
"o  c #543D05",
"O  c #583D06",
"+  c #5D4406",
"@  c #654706",
"#  c #674907",
"$  c #684907",
"%  c #6A4709",
"&  c #6A4C09",
"*  c #724E06",
"=  c #724F0A",
"-  c #6F5107",
";  c #745207",
":  c #7A5407",
">  c #7D5A07",
",  c #755309",
"<  c #7B5409",
"1  c #7E590A",
"2  c #835D06",
"3  c #8A5E07",
"4  c #815708",
"5  c #845C08",
"6  c #8C5E09",
"7  c #876205",
"8  c #8C6306",
"9  c #8F6C03",
"0  c #8B6309",
"q  c #926407",
"w  c #9C6707",
"e  c #956B06",
"r  c #9B6C06",
"t  c #936509",
"y  c #996609",
"u  c #946809",
"i  c #9A6C09",
"p  c #9C7105",
"a  c #9C710A",
"s  c #A16F07",
"d  c #A16F0C",
"f  c #A47305",
"g  c #A97603",
"h  c #A77D03",
"j  c #AD7C04",
"k  c #A37209",
"l  c #AA7209",
"z  c #AC7B09",
"x  c #B07707",
"c  c #B37D06",
"v  c #B97D07",
"b  c #B07709",
"n  c #B47C0A",
"m  c #BB7D0A",
"M  c #BE7C10",
"N  c #C27E06",
"B  c #AD8205",
"V  c #B48205",
"C  c #BB8306",
"Z  c #BD8904",
"A  c #BB8309",
"S  c #C28507",
"D  c #C48A05",
"F  c #C98C06",
"G  c #C38608",
"H  c #CE830F",
"J  c #C58A08",
"K  c #CB8B09",
"L  c #D58E06",
"P  c #D28E08",
"I  c #C59104",
"U  c #CD9205",
"Y  c #CE9E06",
"T  c #D39305",
"R  c #DA9505",
"E  c #D49B06",
"W  c #DC9B06",
"Q  c #D79308",
"!  c #D99409",
"~  c #E78B08",
"^  c #E49705",
"/  c #E29B06",
"(  c #EF9E03",
")  c #E19908",
"_  c #E99E08",
"`  c #CBA107",
"'  c #DEA406",
"]  c #D1A903",
"[  c #D6B704",
"{  c #DCB505",
"}  c #D3BC04",
"|  c #DBBC05",
" . c #E3A205",
".. c #EBA405",
"X. c #E4AA04",
"o. c #EBAA05",
"O. c #E6A30D",
"+. c #F3A506",
"@. c #F5AB06",
"#. c #FAAC06",
"$. c #E6B505",
"%. c #EBB305",
"&. c #E5BE04",
"*. c #ECBC05",
"=. c #F2B205",
"-. c #F9B305",
";. c #F4BC05",
":. c #FCBD05",
">. c #D1C603",
",. c #D9C703",
"<. c #D5CB04",
"1. c #DFCB06",
"2. c #DDD404",
"3. c #DCD903",
"4. c #E5C303",
"5. c #ECC304",
"6. c #E4CB05",
"7. c #ECCB04",
"8. c #F5C305",
"9. c #FCC305",
"0. c #F3CB05",
"q. c #FDCA04",
"w. c #E4D305",
"e. c #EBD605",
"r. c #E4DB05",
"t. c #EDDB05",
"y. c #F3D204",
"u. c #FCD404",
"i. c #F2DB04",
"p. c #FEDC04",
"a. c #E7E202",
"s. c #ECE404",
"d. c #EEEA04",
"f. c #F3E504",
"g. c #FCE305",
"h. c #F2ED03",
"j. c #FDED03",
"k. c #F5F302",
"l. c #F9F503",
"z. c #FDFC01",
/* pixels */
"z.z.z.z.z.z.z.z.z.z.z.z.z.z.U 9.u./ #...A C > o g w k <   6 = N N 5 t = M z H H 4 C ..e ! D  .p.p.o.z.z.q.z.z.z.z.z.z.z.z.z.z.z.",
"z.z.z.z.z.z.z.z.z.z.z.z.z.u.P l.z.E #.#.V K 8 + z m 5 # X < = % = 4 = , n t u 0 @ z R 2 Q L R -.-.E l.z.j.p.z.z.z.z.z.z.z.z.z.z.",
"z.z.z.z.z.z.z.z.z.z.j.z.l.l.@.h.u.D =.@.A ! P i O.n 4 4 , t % 4 d t d = 1 + = 5 @ j D 2 T +...9.=.O.l.z.z.l.z.z.z.z.z.z.z.z.z.z.",
"z.z.z.z.z.z.z.l.z.k.k.y.k.k.Z f.7.c N G e F J t n , - 0 , < % , & O % % 5 1 1 a a K C 3 R %.W e.*.7.k.l.h.k.k.l.z.z.z.z.z.z.z.z.",
"z.z.z.z.z.l.l.z.l.z.z.l.k.k.J y.t.F ! _ J L K 8 t , > d y 0 l l u # = : t t 0 d z J f 2 _ *.T f.i.0.k.k.k.k.l.z.z.k.z.z.z.z.z.z.",
"z.z.z.z.z.z.l.l.k.k.0.f.h.d.z O.*.V T ' A K A 8 8 4 u t 7 , k y 8 4 t , 5 t t t u n r 2  .W c %.=.R d.d.h.k.l.k.k.k.z.z.z.z.z.z.",
"z.z.z.z.z.z.k.k.k.k.0.f.h.d.Z X.w.R F D 3 C C 3 q > y 3 , : 5 G n A z , , 0 5 t e K n 8 E S e X.y.V 4.d.f.h.k.h.k.k.k.k.z.z.z.z.",
"z.z.z.z.k.k.k.k.h.k.l.h.s.s.U *.i.C F / s S K c 3 u a l t 7 i ! n y ~ n k i e u f ! c c ! o.K s.f.r 5.d.0.d.h.h.k.k.k.z.z.z.z.z.",
"z.z.z.z.z.k.k.k.k.d.i.a.3.3.D ' 1.J U K 8 j f l i q i k 8 - 1 7 o X * 3 8 5 q J z C y r Y / r | r.2  .a.a.a.s.l.k.d.z.z.k.z.z.z.",
"z.z.z.l.k.l.h.k.d.j.f.4.t.s.T 5.e.+.A D f V C c ! S c v N k A A > e K S J c v L d c V f ! @.V 0.p...f.j.a.7.l.a.d.k.k.k.k.z.z.z.",
"z.g.z.k.k.k.h.h.a.7.z.5.7.j...6.w...+. .A J C p S j B z v v W _ K K T T ! K S J c c G C R ..^ w.f...3.r.%.z.s.r.k.y.y.l.k.j.z.z.",
"q.j.z.f.k.h.i.7.a.a.5.f.2.} V ' { c U ' V c i l A 8 > e 8 8 7 8 l r C i S c 8 c e f S C V B T | <.[ >.} f.*.&.a.h.i.f.l.i.z.z.z.",
"z.z.l.k.k.h.a.d.s.j.t.,.j.7.C ;.-.U U W c ! T ` / L / / Q Q ! W ..@.@.U / ' F / D D / ! W W *.e.7.C o.l.<.&.s.a.s.d.h.k.k.l.l.z.",
"z.z.l.k.k.a.5.8...f.r.2.*.l.V Z -.o.' / f ..@./ %.C / *.%.+.W U :.-.;.! W T G F U C =.D D W R ..q 2 l.4.] g.f.r.f.s.d.k.h.z.u.z.",
"o.J ! ;.8.' V f 9 ..X.| I B 9.B E R T %.T  .C e T 8 j J ! ..W W R T C Z U A ! A Z +...A T %. ...L q.f j j o.W I ! Z p V A #.T U ",
"g.:.:.5.i.=.e.t.r.g.g.>.e.B $.j.;.=.=.e.[ t.0.| r.^ =.f.t.9.:.p.p.l.0.7.t.$.w.i.6.e.w.{ -.8.F +.j.q g 8.W 6.4.' $.X...0.s.f.k.q.",
"p.:.9.e.h.@.^ r.| 7.e.[ y.=.@.;.j.$.B w.<.i.g.r.s.7.%.t.5.:.9.g.9.l.f.s.0...X.%.' &.6.' 8.f q j.( D 8.-.{ w.t.1.i.w.$.y.7.0.z.p.",
"W W ..! K j 8 T e C  .T $.T ! ] B :.B U | o...e f C  .8.;.R K o.U T @.C V p Z E I W ..j j f q.T ....=.T C ..+.D C R V U Z C Q ! ",
"T ' ..%.*./ C %. .+...f  .' o.-.Z V l.=.2.r.f...5.5.s.l.k.z.z.z.z.u.z.h.k.d.f.s.r.f.g.] 4.l.2 q ..R W D D @.V U F G T W E ;.-.:.",
"W ! ! ! / / L / ` T R c W F T =.;.Z 7.l.,.a.j.a.d.s.h.h.k.k.l.z.z.z.k.k.k.h.d.s.a.a.*.<.l.o.C 7.e.*.W R E / D D / K ' / P #.+...",
"8 2 7 8 e > 9 A f i c C ' K c [ ' V [ 2.f.8.a.a.7.t.h.k.f.l.j.q.z.z.l.i.l.f.i.h.a.&.*.f.} >.[ <.| T B c C C l e A 8 c C i A w l ",
"_ / C v z z n A p C S C ..+...w.w...g.7.*.z.7.a.h.h.k.k.l.z.g.z.z.z.j.z.l.y.y.h.e.h.z.$.w.r.o.i.w.^ ..R C D j c S S P ! U ! U J ",
"C A s N v n S Q v A V f J C +.t.5.T s.r.4.h.l.h.k.k.l.l.z.z.z.z.z.z.l.k.k.k.k.h.a.l.4.a.j.f...g.0.C +.R f c A l T v g J G F u > ",
"7 > - 8 l e q i k f z 8 K U J 6.' D 3.3.t.i.d.h.k.k.k.l.l.z.z.z.z.z.z.z.z.l.h.h.l.d.a.a.a.' 2 r.,.r / Y p u v z J 0 3 8 3 ;   + ",
"! i 5 t k i y 7 v K S s / D Z i.*.U s.d.h.k.k.h.l.k.k.z.z.z.z.z.z.z.z.l.z.l.k.l.h.h.h.e.f.5.p s.s.U ..W c c W k t e i k n ~ y j ",
"G 6 : , 7 i 4 8 6 C S 3 D F R w.X.C s.h.f.y.h.k.k.l.k.z.z.z.z.z.z.z.z.z.k.k.l.h.d.k.d.f.s.5.V y. .u J E 8 n J e u 5 0 : ; z A n ",
"y k , 7 t y 4 q 5 A P v ' T n *...h h.h.d.y.l.l.z.k.z.z.z.z.z.z.z.z.z.z.z.z.k.k.k.l.k.k.d.d.R =.%.c W / 7 r n y t t t 4 : 0 4 q ",
"l l 0 u d 1 , t t K T D / Q F t.0.I h.k.l.l.l.l.l.k.z.z.z.z.z.z.z.z.z.z.z.l.l.z.z.l.k.k.k.k.8.t.f.U *._ 2 s J z k 8 t t < , # t ",
", @ < < 6 = , z u S J e G N V 7.s.Z l.k.y.l.l.z.z.l.z.z.z.z.z.z.z.z.z.z.z.l.z.l.z.k.k.f.k.k.0.*.t.W %.! 5 A U i k 1 , 5 $ % o & ",
"5 @ y = 4 1 m O.a U Q A #.=.D u.h.@.l.l.l.j.l.z.z.z.z.z.z.z.z.z.z.z.z.z.z.z.z.z.z.z.z.l.l.l.X.#.9.....! 7 J z @ 4 = O 5 , d u d ",
"% & 4 X & 5 m z + 7 K V #.#.R l.l.U u.z.z.z.z.z.z.z.z.z.z.z.z.z.z.z.z.z.z.z.z.z.z.z.g.j.z.z.E -.-.R Q P 2 R b @ 8 t t M , = 1 = ",
"H = 6   , d w l o 2 v Z ..#./ p.:.T z.z.z.z.z.z.z.z.z.z.z.z.z.z.z.z.z.z.z.z.z.z.z.z.z.q.z.z.o.p.p. .D R e _ A 4 P K z n = t 1 M ",
"M 4 y = n z G P 4 A ..e R D  .p.p.o.z.z.q.z.z.z.z.z.z.z.z.z.z.z.z.z.z.z.z.z.z.z.z.z.z.z.z.z.Y :.p.' #.+.C C 2 o k w a ,   6 = H ",
"= 4 = , n y t 3 @ b W > T P ! -.-.E z.z.l.p.z.z.z.z.z.z.z.z.z.z.z.z.z.z.z.z.z.z.z.z.z.z.z.u.P l.l.! #.#.c K 8 + z m 7 & X 4 % % ",
"d t d , 5 O * 3 @ j J 2 R ....9.#.X.l.z.z.l.z.z.z.z.z.z.z.z.z.z.z.z.z.z.z.z.z.z.z.l.j.z.l.l.@.f.y.J =.+.C Q K a O.n 4 4 = y % 6 ",
"& o % % 5 , 1 k a K S 7 ! %.W e.*.0.k.k.f.k.l.l.z.z.z.z.z.z.z.z.z.z.z.z.z.z.z.z.z.k.l.y.l.k.Z d.0.v N G e K D t n ; * 7 < < % = ",
"u & = , t t 7 d z J f 2  .*.T f.t.8.k.k.k.k.z.z.l.z.l.z.z.z.z.z.z.z.z.z.z.k.z.k.z.k.l.l.k.k.I 0.t.U Q / D T F q y : 1 k u 0 l d ",
"0 5 0 , 5 t i t t n r 2 / / n %.=.R s.h.h.k.k.k.k.k.z.l.z.z.z.z.z.z.z.z.z.z.l.l.l.k.y.f.d.s.B ..&.n ! ' v P A 3 8 4 t t 0 , d y ",
"n A b , > 7 2 u e K c 8 ! Z e  .y.V 5.d.s.d.k.h.k.k.l.l.z.z.z.z.z.z.z.z.l.z.l.k.k.k.y.f.d.d.C X.w.T K D 7 C A 3 8 > i 6 , , 6 G ",
"z y ~ n k i e q k ! c c W o.U t.f.p 4.d.e.h.h.h.l.k.k.z.z.z.z.z.z.z.z.l.z.k.k.k.h.h.l.h.d.s.U *.i.J D / l C K v 3 y i d t 0 i ! ",
"o . * 3 q 5 8 D z c y r E / e ,.r.>  .s.a.a.s.k.k.d.k.z.l.z.z.z.z.z.z.z.l.k.k.k.h.d.i.a.3.3.D ' 1.D T F 8 z f l i q r k 8 ; > 7 ",
"1 i K J G x v L l V V p R @.A 0.g...f.j.a.7.l.a.d.k.k.l.k.l.z.z.z.z.z.l.l.l.k.k.h.j.h.4.r.f.T 5.t.+.A F f V A c ! S n c N s A A ",
"J U ! P T P S J c c D Z R ..) e.i.o.w.2.%.z.h.e.j.y.y.l.k.j.z.z.z.p.z.k.k.l.h.h.a.7.z.5.4.g.o.6.1...+. .C G C p S c z z v C / _ ",
"k r C i S n 0 V e f S C V B T [ <.{ >.>.f.*.&.a.h.t.f.l.i.z.z.z.q.j.z.f.k.h.t.7.a.a.5.i.3.[ V X.{ V F ' C c i k V 8 2 e 8 7 2 8 ",
"..@.#.U / ' J / D S / E R W *.y.7.C o.l.<.&.f.r.s.d.h.k.l.l.z.z.z.z.k.k.k.d.s.d.f.l.t.,.l.7.V ;.=.T U W j W T ` / L W W T Q ! W ",
":.-.;.E W T F F U C @.D D E R ..8 3 l.4.] f.s.r.s.f.h.h.k.l.u.z.z.l.z.k.k.d.5.5...f.r.2.;.l.V Z -.o.' / l ..+.' %.S / *.%.+.' U ",
"R ! C C T V ! C S +...C T ;. .o.T q.f j j ..W I E Z p A A @.T U o.K R ;.*. .A k 9 ..X.| U B 8.B ] T T $.T  .A e T 7 j K ! ..W W ",
"p.l.0.7.t.$.6.i.1.e.r.{ -.:.F ( g.q g 8.' 6.4.' $.X. .0.s.f.l.9.g.9.:.*.t.=.e.s.w.g.g.>.7.B $.j.;.=.=.y.[ e.0.| e.^ =.f.e.q.:.p.",
"9.l.f.f.0...X.%.' 4.6./ 8.g 8 j.( D 9.-.| w.t.1.i.6.$.t.7.0.z.p.p.9.9.t.f.=.^ r.| 0.e.[ y.=.=.-.j.X.B e.<.i.g.r.t.7.%.i.5.:.:.g.",
"U T @.V V a C E I W o.c j f q.T .. .%.T C ..+.S C R C U C C Q R W W ..R F j t T u A  .T $.R T ] B 9.B U | o...e f Z ' ;.;.R F o.",
"z.u.l.k.k.d.s.f.3.f.f.] 5.l.2 8 ..W E D D =.C U F F T W E ;.-.:.T W ..o.*./ C %.' +...f  .' o.-.Z V l.%.2.r.f...5.4.h.k.k.z.z.z.",
"z.l.l.k.k.h.d.s.a.s.&.<.l.o.C 7.y.*.W R E ^ G F / J ' / K @.#...W ! ! ! / W L / ` T W c W F P =.;.C 7.l.,.a.j.s.d.s.d.k.k.l.z.z.",
"z.z.z.i.l.f.i.h.a.&.*.h.} >.[ ,.| T B c C C f e n 8 c C r C r l 0 5 7 0 e > 8 A f i x C ' K V { X.V [ 2.s.*.a.a.7.t.k.k.f.l.j.q.",
"z.z.h.l.l.y.y.h.e.s.z.%.r.2.X.p.w.^ ..W Z S c n J C P ! P R U D ..W C A z j c Z p A D C ..+...w.6.o.g.7.5.z.7.a.h.d.k.k.k.l.g.z.",
"z.z.z.l.l.k.k.d.a.l.7.a.j.f...p.0.C @.! k c v f L A b G J K u 2 C A s N c c S ! c A V f D C +.t.5.Q s.r.5.h.j.d.l.h.l.l.l.z.z.z.",
"z.z.l.l.z.l.d.k.l.s.a.a.a.' 2 r.| e / Y s e A j J 0 5 q 3 * . o 7 > & 8 l i q r l k g 8 D U D 1.X.Z 2.3.a.i.d.k.k.k.l.z.l.z.z.z.",
"z.z.z.z.z.k.h.z.h.h.h.y.s.4.p f.s.U ..W n n ! k u u d k b ~ u z W i 0 8 k a i 6 n K S l W D D i.*.U f.s.h.k.h.k.l.k.k.l.z.l.z.z.",
"z.z.z.k.l.k.l.k.h.l.h.t.d.4.V y. .e J E 8 n J e i 1 0 , = b A M G 6 < < 5 y 1 8 7 A N 3 D F R w.X.Z s.h.f.y.k.k.k.k.z.k.z.z.z.z.",
"z.z.z.z.z.z.k.k.k.l.k.h.k.a.R =.%.V / W 2 r c y 0 y t 5 , t 1 0 y d , 5 t t 4 q 8 A P v ' T c &. .h h.h.f.y.k.l.l.l.z.z.z.z.z.z.",
"z.z.z.z.z.l.k.z.z.l.k.k.k.k.8.i.f.U *._ 2 s J z k 0 t t < , & 0 l l 0 t d 1 : q 8 K P D _ Q F t.0.I h.h.l.l.l.z.z.k.z.z.z.z.z.z.",
"z.z.z.z.z.z.z.l.z.l.k.f.k.k.5.*.e.W $.R 8 C J r a 1 : 5 % % o & , @ < , 7 = ; n u G F e D G n 7.f.Z k.k.u.k.k.k.z.z.z.z.z.z.z.z.",
"z.z.z.z.z.z.z.z.z.l.z.z.z.l.X.-.9...+.R 2 J z @ 5 ; O 5 1 d t d 5 % y = 4 4 n O.a K Q C +.=.J y.h.#.z.l.l.l.z.z.z.z.z.z.z.z.z.z.",
"z.z.z.z.z.z.z.z.z.z.g.j.z.z.E -.-.W L T 2 W c @ 3 u t n , = 4 = % & 4 X # 7 v z + 8 K V #.#.W l.l.U u.l.z.z.z.z.z.z.z.z.z.z.z.z.",
"z.z.z.z.z.z.z.z.z.z.z.q.z.z.o.p.p./ G R e _ C 4 P H z n = t 4 N H = 6   , k w l o 2 A A +.#.) p.9.U z.z.z.z.z.z.z.z.z.z.z.z.z.z."
};
