/* XPM */
static char *_a25d074010644b4bc72d430deff6bcf6Vyq8YvoKtd3C8Il[] = {
/* columns rows colors chars-per-pixel */
"64 64 134 2 ",
"   c #6D6353",
".  c #736955",
"X  c #7B6C55",
"o  c #7C6E5A",
"O  c #7E715C",
"+  c #7E7260",
"@  c #83745E",
"#  c #88775D",
"$  c #86785F",
"%  c #8A795E",
"&  c #927D5C",
"*  c #857661",
"=  c #897761",
"-  c #867962",
";  c #8B7C64",
":  c #8E7E69",
">  c #917E65",
",  c #917F69",
"<  c #94805F",
"1  c #8E8066",
"2  c #8E8169",
"3  c #938266",
"4  c #9A8565",
"5  c #9E8866",
"6  c #94846A",
"7  c #9A866B",
"8  c #96896D",
"9  c #9C8A6D",
"0  c #968670",
"q  c #9A8770",
"w  c #978971",
"e  c #9D8C71",
"r  c #9F9172",
"t  c #A98C63",
"y  c #A08768",
"u  c #A28D6E",
"i  c #A88D68",
"p  c #A5916F",
"a  c #AB916C",
"s  c #AE9A6E",
"d  c #B0956D",
"f  c #A28E72",
"g  c #A98F71",
"h  c #A38F78",
"j  c #A49274",
"k  c #AA9574",
"l  c #A79977",
"z  c #AD9975",
"x  c #A59579",
"c  c #AB9679",
"v  c #A69879",
"b  c #AD9A7A",
"n  c #AF9E7A",
"m  c #AA987D",
"M  c #AF9B7C",
"N  c #B19570",
"B  c #B29672",
"V  c #B49775",
"C  c #B49776",
"Z  c #B59871",
"A  c #B49972",
"S  c #B09975",
"D  c #B29A75",
"F  c #B19A76",
"G  c #B39A77",
"H  c #B79B76",
"J  c #B69E77",
"K  c #BA9D75",
"L  c #B89D76",
"P  c #B99D76",
"I  c #B19579",
"U  c #B19C78",
"Y  c #B19C7A",
"T  c #B79C79",
"R  c #B69E79",
"E  c #B49D7B",
"W  c #BA9D78",
"Q  c #B99D7A",
"!  c #B99E7A",
"~  c #B99E7B",
"^  c #B99F7B",
"/  c #AEA17D",
"(  c #B3A077",
")  c #BBA077",
"_  c #B5A07B",
"`  c #B3A07F",
"'  c #B5A17D",
"]  c #B6A17E",
"[  c #B5A27E",
"{  c #B8A078",
"}  c #BAA27B",
"|  c #BDA27B",
" . c #BBA37D",
".. c #B8A37E",
"X. c #BDA37C",
"o. c #BDA47D",
"O. c #BEA57D",
"+. c #BDA97F",
"@. c #C2A27D",
"#. c #AE9B82",
"$. c #B39D81",
"%. c #B29F80",
"&. c #B99E81",
"*. c #B5A281",
"=. c #B4A382",
"-. c #B7A383",
";. c #B9A382",
":. c #B9A582",
">. c #BBA582",
",. c #BAA483",
"<. c #BEA580",
"1. c #BDA681",
"2. c #BBA684",
"3. c #B4AA85",
"4. c #BDAA84",
"5. c #BCA788",
"6. c #BFA988",
"7. c #BCAA88",
"8. c #BDAB89",
"9. c #BDB086",
"0. c #BFB18A",
"q. c #C1A684",
"w. c #C0A982",
"e. c #C1A982",
"r. c #C2AA85",
"t. c #C8AC84",
"y. c #C3A688",
"u. c #C2AD8A",
"i. c #C8AE8B",
"p. c #C1B087",
"a. c #C3B18C",
"s. c #C9B28E",
"d. c #C3B291",
"f. c #CBB594",
/* pixels */
"c f ; * - 2 9 r 9 3 - % 4 k R | 1.o.o. .H z j 2 - ; 8 l j 7 5 < $ 3 u H J | ' ;.2.2.R R R c 6 $ * : e c j r 8 6 1 1 1 ; - $ ; % ",
"e 1 O O * - 1 1 $ $ % 1 5 F  .1.w.w.o.R f 6 0 e x c j 8 3 % % % % 1 u ( ( ! R R 2.4.4.1.o.} c 2 $ : j ' 2.-.b j 8 1 1 3 6 6 7 6 ",
"; @ O @ @ * - ; ; ; 3 5 k J R M R o.c w 0 j #.M r 8 6 3 1 # 5 < & 1 5 k P P Z N F o.o.o.o.o.T 5 - 7 j z ' ' ' / r 8 1 8 x l z v ",
"* - ; 3 3 1 2 6 8 8 j j 5 7 8 6 > 8 6 0 x 6 w 0 ; 6 6 6 1 1 3 % 5 6 7 s J P Z N C ! ! } | o.P k > ; 6 9 z z l M l 8 1 6 j c Y 2.",
"; 8 j j j e f j l l j r 8 8 r e 6 : , x 8 ; - $ ; 2 ; 1 3 ; % 3 % p k F ! ! H N C ! ! } o.o.} F 4 ; ; 3 u u 5 e r 2 - ; 6 l =.7.",
"e M =.=.M c b E M 9 8 8 c -.2.*.c e 0 6 ; : 7 j #.$.M E E v 4 3 3 F k F R ! H N N ! o.@.w.w.1.! u 3 ; ; > 3 3 ; $ @ + * 2 r #.-.",
"#.8.8.7.=./ ` E 7 2 r n ' '  .=.^ $.f ; 2 k z H 2.-.-. .z j 5 ; 4 F z E 8 * @ E H E }  .w.w.1.} H 9 3 ; ; ; - @ $ - @ O * 6 r j ",
"-.8.8.8.=.' / l 6 6 l _ ' J E R $.c ; - k 2.1.4.u.;.J ! ! D 3 % @ @ - 6 h x j 6 6 c F J }  .}  .} F j e 5 2 3 6 6 3 ; O o - 1 2 ",
"8.a.a.8.2.=.l 6 ; 6 p E E _ _ } c c % y } @.o.| o.a d P P a 3 3 & 5 5 j l c M #.v 2 e ' j j R Y '  ._ M m v l l M b w ; O o - ; ",
"3.a.9.-.c c e ; ; 6 p z D p j o.9 3 % k P } } P ! H Z P J p 5 y 4 5 1 8 0 6 j x v #.: 2 * 3 ; ;  .1.;.' E Y c / =.2.=.x ; o - 3 ",
"3.4.c 8 6 ; > = 3 f 5 3 3 3 7 5 ; % 3 H o.4.o.| ! N Z ! E z z 3 3 1 1 4 ; ; X O : #.x 8 j =.Y b 6 e 1.2.*.' / ' 2.8.8.*.6 $ - 6 ",
"-.x 2 ; ; ; ; > u 9 6 ; ; @ 1 ; % 3 k } 4.t.o.o.! N k u F k z 4 $ z  .2.*.u. .l = ; f #.-. .2.' / 8 8 2. .*.=.+.7.8.p.3.9 - - 3 ",
"l 2 ; 6 9 9 4 u 9 ; ; 3 5 6 6 8 r z } } >.E R Y E e 6 e 6 - O @ 3 9 F } ' r. .o.;.; 6 M &.E F R _ j 1 l E ' -.2.4.a.a.3.x 1 $ - ",
"6 - 5 c v v c f - ; j =.E b n ` ' 2.' E Y E R R 0 m j e l 5 4 3 % < K } t E P o.@.z $ H E  .P E l 9 1 ; j  .2.2.4.p.a.3.l r 1 $ ",
"1 ; e c F Y j 6 @ 7 8.8.*.` M ` ' 4.2.3 : p ; ; #.6 - - - $ - % 3 9 J P F ! H J  .} - ; l z f d s j 3 - 8 8 9 2.2.8.a.9.*.l 6 $ ",
"6 2 9 c F R j - - v 8.a.3.` -.=.2.' 1 1.a.8.c w - : M 8.` -.P % 5 z J c i N | w.t.o.p @ ; 6 ; > 7 z j ; $ - - - c 4.a.a.9.3.r 1 ",
"/ 8 f F ! g ; $ 8 / 0.0.8.2.*.' ' 6 `  .F z *.6 6 +.} 8.' ! p 3 o $ 2 j 6 9 z ! 1. .o.j 6 ; 3 ; $ 6 z f 0 9 f > $ x 8.a.a.a.2.b ",
"6 8 M ' j 6 - 1 r / 9.0.2.1. .z 8 - u _ E z E $ P o.) P i } i ; i k 4.Y -.2.* , ; 3 R 4.E %.x -.' @ % c M M M f - 6 1.4.r.a.8.n ",
"9 F 2.c f - $ 8 ' 9.a.8.3.' 1 6 @ 6 j y 3 u ; 3  .q.| H d o.c p i - ; 6 e -.c w 7.c ; _ E E ' 8.d.R o 9 Y F z e ; 6 2.4.r.a.p.8.",
"' 1.1.c ; @ e ;.a.a.a.7.r - 7 6 3 j - % ; ; 6 } |  .F R @.R k u ; E c $.6 : c *.z ` -.1 ' -.3.8.p.-.% ; c ! E h 7 1.1.4.8.p.1.8.",
" .4.l 1 @ ; b 7.a.4.4.E - j Y c c O l 8.x *.4. .j z _ e 6 c ; X 8 F R 5.o.p 6 w.X._ z % 3 z ' 4.a.v 5 - 8 c  .Y 8 3 7.+.1.+.7.4.",
"' j 8 1 6 M 1.9.p.8.4.=.; e k c 1 ; u.8.' ` 2.*.; 8 ; x 2.2.o.Z 4 F a Z @.o.$ k c s F j @ = - *.a.d.3.- O j z 8._ r - +.[ 1.+.9.",
"l 9 1 1 j 4.8.w.2.4.1.o.3 j E f - 9 8.8.[ ' p.2 ' Y =.M -.c l ' z F @.J } o.k - - $ 9 ' v c j - 3.p.s.2.* ; M 1.+.' 8 - +.+.4.@.",
"j r 8 3 [ 9.r.4.o. .' ; z -.k @ - 9.a.u.3.E % - E } y.2.1 e e % ' i.;.;.' z o.8.M 1.3 < ;.F f ; -.8.p.p.l - 8 c _ ` r $ z 9.+.+.",
"j r 2 8 [ 4.+.4.4.+.% / 4.2.6 - 4.a.8.[ ; > > ! R 2.| 7 ' 1.H u @ E 6 x j -.d.2.[ 9.n - '  .E ; [ 2.9.8.8.z - 9 l j 0 * l 2.' ( ",
"j x - 8 ' X.o.+.9.( ; l _ 8 - Y r.0.2.o.: v  .p E = - 4 o.J ! p o.%.,.x M - j E 8.8.9.1 2 ' w.o.1 z P w.9.9.1 e n e ; 8 2.2.[ o.",
"8 w 2 r 2.2.' '  .' ; w j 2 j 9.4.'  .[ ; 2.1.u.; 4.$.1.z 1.2.7.s ' t.q.} 6 1 k _  .a.r.@ l 1.2.l % 9.+.o.4.1 8 =.w ; e E r.r.4.",
"r e 2 r H ! o.q.a.1.w - j 2 l  .4.p.z 6 w.w.' k 6 p.4.k _ 8.7.t.- ; ;.o.2.s R ; 2.4. .4.2.- E x 8 1 ' z 1.p.r 8 j r 2 - e u.w.o.",
"l w ; l F  .o.q.8.v ; - j 2 2.+.F _ f 8 M 1.z $ a.2.' 1.s.; 6 b F o.- z | u.q.7 j } 1.1.' 1 =.c - c p.i.! a 6 6 j l ; O 6 c o.} ",
"l e : 5 u z  .o.F 7 - 7 r - p P p.a.$.@ *.w.f n 4.o. .F ; D r.D r.' -.l | u.'  .6 @.` E +.9 l 7.- - M  .R R l 6 c 7.M 6 2 c j R ",
"l 8 6 7 f k H ! v 8 v 1.r ; j F ! w.6 3 4.1.6 _ ' o.u.j Y w.2.4.1.u.o.r.$ p.4.2.- F i.w.F 3 f -.M ; v F k i 8 6 j ' -.j 6 f k J ",
"x m 2 ; 5 k ' o.z : M 2.x - 7 k w.o.; *.7.u.6 j t.o.t.- u.r.t.1.o.w.r.@.- w.4.r.j u t.w.k - j 4.2.j 6 2.z 5 ; r x 4.-.M ; e z  .",
"2.b e ; 3 4 F } j ; M 2.! j ; 3 R H ; $.;.8.M % H o.' - q.;.! H 5.R 1.9 7 -.4.;.c f } H > ; 8.-.2.f 6 Y 4 3 2 c 2.2.;.c : e f E ",
"E l l e $ ; u T f - 7 R Y k ; = u g - k Y R ' 6 * 6 ! : 1.q.>.q. .q.w.= I r.u.o., 7 u ; @ 7 R E R - > F $ % x c ' E H e - 9 f N ",
"E -.c 5 @ ; 4 u 6 * 7 ! -.F $ X $ $ * 6 o.r.u.f f f Y >.k E ^ q.q.;.k c ! ;. . .> 7 6 > 3 y ' R k - o % % 3 j R ;.R E f = 7 y u ",
"! ;.j j 3 X # - @ - - j n Y f ; , x o u ! 1.E f = ^ f.r.; = T y.F Y j - q.s.1.1.* k , k e M q.| 7 ; o ; ; - u c ;.R l 6 ; ; > 3 ",
"E -.f u . ; > ; @ = : 7 o.! f f h ! o > E 5.o.f , ! N T ;.q.9 = ; ; &.! &.R u.8.h ! , f f f 5.R u = 6 : > u k  .! S e > @ * @ $ ",
"E R  .j 7 7 X e 7 @ 4 u R ;.- f j 7 f ; 2.r.t.2., u.z M E E T >.*.w.q.F C ;.y @ 8.o.y.@ 7 w.q.F 7 o f 9 6 c F 1.;.k 7 > @ @ O = ",
"F  .o.c c 7 - e 7 : o y a -.y.c 4 @ f > 8.8.2.' > 3 e 5.q.I C &.y.! T y.g 6 x * N R F ; u 1.2.F 7 . &.c ! 3 &.&.>.k 7 > $ - * # ",
"F | q.z f e h E 1.6 @ h  .w.r.9 , @.q.f : ;.i.i.q.7 7 ; e o.&.z u.1.E 4 ; E u k H >.j f 9 5.u.2.; : f f f c z 2.! N y > * f , - ",
"c 1.x c   c c c &.o @ > k >.F 7 ; g R u $ & 4 E C g k : g e $.#.> = , ; R Y Y e M 1. .: c q.u.u.: 4 $ u j 5.q.1.F k ; $ > g 7 6 ",
"H !  .k k g k f g = , : -.t.$.: I 6 M ! - w %.c > &.y.T y g I c g 1.I I ^ t.r.-.j u % h d.u.Y 8 7 &.N 6 7 t.t.q.! k 6 - - c R f ",
"k R  .5.q.k g f @ > > : 2.i.2.e : k E E j ; @ ; , 7 H W ! q.^ ^ 2.r.I E ^ c j e : 6 6 ;.w.! f * f C 6 , 6 m 1.2.z u > o = f c c ",
"z R 1.q.t.c e > 7 ! g : f 5.8.$.h 5 i.4.E 6 f S f = * I E q.E i.c E %.^ 2.6 $ , 6 - k c 4 & @ ; f f 7 k = F q.2.4.x ; ; - 4 c k ",
"k E 2.q.8.: e > z q.k 7 : 7 F | j - u j j v u.u.t.1.- 7 q = 7 u 1.y.5.&.3 Y - I m 7 > E 5.f 7 - k , f j 6 m r.u.2.h 6 - = , I I ",
"j E 1.4.c 4 6 > 7 ^ T h * 6 ! c Y 8 ; 7 : 3 $.1.1.5.z u 7 f f - , ; ; : , * k E k 6 * $ 6 - > 8 z ^ u : j 2.5.u.4.h , , , > h c ",
"Y 4.w.w.c f = 7 7 j E f : X > & 5 e % * 2 8 e 1 6 T >.&.y.d.2.z k E Y ! ! C F 7 ; $ 7 7 % - c E u.t.> h E i.8.8.M 6 6 g C y > 5 ",
"x 4.u.y.c e = f 9 6 F f $ f 6 Y 5.8.- O ; 6 - - : >.,.E %.Y Y z i.E &.5.E ! u @ 7 c 5.u.E e k j k 4 2 c r.t.5.M w 2 f I &.u > 7 ",
"c r.u.8.c 9 e f k u F u - - - 8 E 6 - - e 7 f - c 7 u r.u.u.5.1.g c 6 - f $.> > u.1.-.2.m 0 0 $.j $ 6 -.2.c k > : ; z g S u > 7 ",
"j *.8.u.y.m f 6 9 ! 4. .b j ; - o - : ; $ 5 g f 7 $ - , 0 e x h - : w 0 , , q c 2.E Y -.6 * - * o 6 x ! F k k ; = 7 j F f 7 > : ",
"w m 2.5.u.%.=.7 4 ' r.1. .E 7 6 6 j c 9 > ; $ & , y j 9 5 6 , > > f -.d.y.$.&.%.u # $ * x x 0 - ; u M g u 3 > $ # 7 f k 7 7 7 : ",
"2 8 c E ;.q.#.7 ; 5 l z k j r l E 4.4.-.j 7 @ > M E E ! %.I Y u.z E R E E Y ;.Y 5.; - 2 ; ; = * > f E E F u 6 6 - 7 f j 9 e f > ",
"; ; 7 f H R 2.x - $ 9 $.b j j #.4.8.r.t.q.&.5 - I &.h : ; I c k  .;.5.r.r.i.k e k z = 7 6 5 7 * = ; j E $.e 6 ; - 5 u k u p f 9 ",
"- - ; 9 k c R f 8 : : r e 6 2 8 c -. .' q.>.u > : : = * = : f f ! 8.$.5.m q h @ @ f , c j u 7 : ; ; ; , 6 : ; w w c j J z u 6 j ",
"; - ; 4 u u z C f 6 ; + : : : 6 l c c z E ,.Y c q q h %.%.h 7 = : ; - - : 6 7 > = 6 f f u y > - ; 2 ; - @ - 6 j x v 4.o.z 7 6 9 ",
"; - ; > > 4 u k F 9 ; + * 2 0 r 9 ; ; ; u F ! 2.,.;.u.u.u.&.c w 9 f f h u g E z g u 7 4 > ; - > v j f 7 3 3 8 F R ;.1. .p 6 > e ",
", = , 6 7 f  .E E k > - * - 6 6 , : = - e Y E -.R R -.-.;.' R F &.R Y Y ^ ,.1.^ E H f ; @ > e c b 8.7.l j j j l k k z u 6 - ; 7 ",
"8 - - , 7 j -.%.m 6 ; @ O ; ; : 7 , ; 0 v -.E ;.5.5.,.,. .$.E E q.1.$.E c j z c H c 7 @ ; c M w.r.w.7.2.M x j x I Y j > - $ 3 u ",
"f 8 6 : : 6 7 w 6 ; - = - 6 h 6 7 6 ; 9 j 7 7 f -.2.5.r.8.2.1.&.c z c 7 : : 6 q h f = ; k q.5.q.2.1.*.b r w 0 w j m 0 - # # > 4 ",
"e 8 9 6 : ; - - = = ; : ; - 3 7 u c 7 6 6 = - > q w x #.M E $.c 7 6 : , = : = : , , , 6 k ;.o.E E ` b l 8 2 2 2 6 : ; ; > 6 4 3 ",
"7 f f 7 : ; - - 2 6 e w > : ; 5 > u 7 = = - = : : : : : : : : : * , 6 f c #.x 0 8 6 x k ' D l 9 e j j r 8 2 2 - * o - , e c h 7 ",
"4 f Y f 0 0 6 8 e x M v 8 3 ; ; > ; 4 u 7 k k k k k 7 7 7 9 7 7 , f x v y.u.y.2.;.;.;.&.F z i 1 ; ; 6 8 e w 2 - + o - 6 z Y j q ",
"> q c x e 0 8 2 r Y E x x f 6 3 @ ; > 9 h g x 1.j c j j f j j j u f E 2. .;.-.-.E ' ' ' E n e - - ; 1 6 2 8 2 + o o * 6 e e q 6 ",
"- : 0 q 2 : - ; 8 v M E M k 9 9 = @ > k R R Y F F I Y Y Y ^ 5.y.R F E E E ;.&.-.2.2.;.=.E *.x 6 ; ; 2 ; 1 1 + + + + * = : ; ; : "
};
