/* XPM */
static char *eb6cabc8695a4837faa7813941668965sAbUNbsCy3HIqBC3[] = {
/* columns rows colors chars-per-pixel */
"64 64 111 2 ",
"   c None",
".  c #000000",
"X  c #0B0B0B",
"o  c #131313",
"O  c #181817",
"+  c #1C1C1C",
"@  c #201F1F",
"#  c #242424",
"$  c #282827",
"%  c #2C2C2C",
"&  c #30302F",
"*  c #302F30",
"=  c #333333",
"-  c #383837",
";  c #373738",
":  c #383738",
">  c #3B3B3B",
",  c #444444",
"<  c #484747",
"1  c #484748",
"2  c #4C4C4C",
"3  c #50504F",
"4  c #504F50",
"5  c #4F5050",
"6  c #535353",
"7  c #5B5C5C",
"8  c #636163",
"9  c #616363",
"0  c #636262",
"q  c gray38",
"w  c #646464",
"e  c #656564",
"r  c #666664",
"t  c #666665",
"y  c #616161",
"u  c #6A6969",
"i  c #696B69",
"p  c #6B6B69",
"a  c gray42",
"s  c #6B6B6D",
"d  c #6D6D6D",
"f  c #6E6E6D",
"g  c #6F6D6F",
"h  c #6D6E6E",
"j  c gray43",
"k  c #696B69",
"l  c #707072",
"z  c #707272",
"x  c #727272",
"c  c gray45",
"v  c #757573",
"b  c #757375",
"n  c #747474",
"m  c #747475",
"M  c gray46",
"N  c #767576",
"B  c #777577",
"V  c #767676",
"C  c #767776",
"Z  c #777677",
"A  c #777777",
"S  c #777777",
"D  c #787877",
"F  c #777779",
"G  c #787778",
"H  c #787678",
"J  c gray47",
"K  c #797979",
"L  c #7A7878",
"P  c #7A7A78",
"I  c #79797B",
"U  c #7A787A",
"Y  c #7A7C7A",
"T  c #7C7C7C",
"R  c #7E807E",
"E  c #848383",
"W  c #838385",
"Q  c #838483",
"!  c #898987",
"~  c #8A8888",
"^  c #8A8989",
"/  c #8A8A88",
"(  c #8B898B",
")  c #888A8A",
"_  c #919391",
"`  c #959595",
"'  c #979797",
"]  c #9A9A98",
"[  c #9E9C9C",
"{  c gray62",
"}  c #9E9D9E",
"|  c #A0A0A0",
" . c gray63",
".. c #A2A1A1",
"X. c #A1A2A2",
"o. c #A2A2A2",
"O. c gray67",
"+. c #ACACAE",
"@. c #ADADAF",
"#. c #AFAFAE",
"$. c #AEB0B0",
"%. c #B0B2B2",
"&. c #B4B4B2",
"*. c #B5B7B5",
"=. c #B4B6B6",
"-. c #B4B4B4",
";. c #BABABC",
":. c gray75",
">. c #CDCDCB",
",. c gray80",
"<. c #CDCDCD",
/* pixels */
"                                                                                                                                ",
"                                                                                                                                ",
"                                                                                                                                ",
"                                                                                                                                ",
"                                                                                                                                ",
"                                                                                                                                ",
"                                                                                                                                ",
"                .                                                               . = , = +                                       ",
"              . # :                                                             1 2 > % : '                                     ",
"                : , =                                                               $ o = +.                                    ",
"                  = = =                                                             . . #                                       ",
"                    = = =             .                                               o = )                           .         ",
"                      = = =         . > X.                                            % < 6                         . , ..      ",
"                        = = $     . , F                                               2 6 > =                     . > Y         ",
"                          $ $ = @ = M                                                     = % X . .           . . = U           ",
"                            o + X 6                                                         o $ 6 i < = * $ % > = g             ",
"                            . < : *.                                                        . 6 2 6 2 < 2 6 3 7 x ,.            ",
"                            . e 6 U                                                         . t 6 7 q                           ",
"                            . 2 , % . . .                                                   . : = 2                             ",
"                            . 7 = o . + , q           .                                     . 6 > 6                             ",
"                            + 6 $ # o = < 7         . > ..                                  + < : 6                             ",
"                          . < 7 7 ] _ ( 7 : =     . , M                                   . 2 < > , >                           ",
"                        . = D             : $ = $ = M                                   . 2 7     , % O .                       ",
"                      . X u                 X @ X 2                                   . 2 7         $ o $ > * = :               ",
"                      . = $.                . , : *.                                . 2 7             X + 6 7 9 A               ",
"                      + 6                   . e 6 U                               . < 7                 E $.                    ",
"                      $ 4                     6 < = .                         . . = M                                           ",
"                    . > 7                     = $ o . o % 6           . . + $ > = j                                             ",
"                    o 2 M                     + - = # = , 6         . $ , 2 6 7 x >.                                            ",
"                  . 2 7 U                       ` O.  ) 6 ; $     . * M j                                                       ",
"                . , 7                                     $ @ = $ * x                                                           ",
"              . , F                                         = > * 2                                           .                 ",
"                {                                           < : # 2                                         . , {               ",
"                                                          . 2 , : > 2                                     . > T                 ",
"                                                        . 2 7     2 = $                               . . = U                   ",
"                                                      . 2 q         $ $ #                     . . + $ > = j                     ",
"                                                    . 2 q             # = <                 . % > 5 6 7 x ,.                    ",
"                                                  . < 7                 < > :             . < 7 q                               ",
"                                            . . X = x                     = $ o . . . . X = x                                   ",
"        . + $ : % 2           . . @ % % , 1 , 2 # 6                         = + < q 2 2 $ 6                                     ",
"        $ 1 > 2 , 6         . % > 2 6 6 s 6 > % + +.                        : = 2 6 < % + O.                                    ",
"              ) 6 : &     . < 7 q         e $ o % ;.                      . 2 6 d i = o % ;.                                    ",
"                  = $ = # = b               . . :                       . = G       . . $                                       ",
"                    o @ X 2                 . o <                     . X i           o = /                                     ",
"                    . * X ..                o 2 M                     . = @.          % < 6                                     ",
"                    . 4 < :.              . 2 7 U                     + 6             2 6 : :                                   ",
"                      = 6               . 2 7                         $ 6                 : & $                                 ",
"                    . > 7             . 2 y                         . > 7                   o o X                               ",
"                    o 2 M           . < 7                           . 2 M                   . $ + W                             ",
"                  . 2 7 U         . = U                           . = G R                     > 2 &.                            ",
"                . < 7           . $ M                           . % M                         % , {                             ",
"              . , M           . + 7                           X % 7                           : 2 )                             ",
"                {             . y 7                         . = = 2                           % , 6                             ",
"                                , , -                     . , 2 > > >                         2 6 > :                           ",
"                                  = = $                 . = M     > = =                           > = =                         ",
"                                    O o X             . X i         = # #                           = # #                       ",
"                                    . $ + Q           . = #.          $ 7 ..                          # 7 ..                    ",
"                                      > 5 -.          # 6               }                               {                       ",
"                                      % 6             % 6                                                                       ",
"                                      = 9             = 8                                                                       ",
"                                      > U             : M                                                                       ",
"                                                                                                                                ",
"                                                                                                                                ",
"                                                                                                                                "
};
