/* XPM */
static char *_f2827d5c9b04cf4c9f21ff05e88d83dGG1oU6Bl1pdi240g[] = {
/* columns rows colors chars-per-pixel */
"64 64 75 1 ",
"  c #7DD3FC",
". c #7BFDFD",
"X c #9BC6C6",
"o c #86D7FE",
"O c #87DAFE",
"+ c #8CDBFE",
"@ c #94DEFF",
"# c #99DEFE",
"$ c #A4DFFE",
"% c #8AE4E4",
"& c #86ECF0",
"* c #8DEEF0",
"= c #8AE2FF",
"- c #90EFF0",
"; c #93E2FF",
": c #9BE3FF",
"> c #97E8FF",
", c #9EE9FF",
"< c #82F1F1",
"1 c #A3E3FF",
"2 c #ACE5FF",
"3 c #A4EAFF",
"4 c #ACEBFF",
"5 c #B3E6FF",
"6 c #B9E7FF",
"7 c #B4EAFF",
"8 c #BBEBFF",
"9 c #A7F3FF",
"0 c #ACF1FF",
"q c #B4F1FF",
"w c #BCF3FF",
"e c #B4F8FF",
"r c #C4EDFF",
"t c #CAEFFF",
"y c #D0EFFF",
"u c #C3F5FD",
"i c #C1F5FF",
"p c #C1F6FF",
"a c #C1F7FF",
"s c #C4F7FF",
"d c #C9F1FF",
"f c #CAF0FF",
"g c #CDF0FF",
"h c #CFF1FF",
"j c #CDF3FF",
"k c #CAF7FF",
"l c #C7F8FF",
"z c #C8F8FF",
"x c #CAF9FF",
"c c #CEF9FF",
"v c #CEFBFF",
"b c #D0F1FE",
"n c #D1F3FF",
"m c #D6F1FF",
"M c #D5F2FE",
"N c #D2F4FF",
"B c #D5F4FF",
"V c #D7F6FF",
"C c #D9F3FF",
"Z c #D9F5FF",
"A c #DBF4FF",
"S c #DAF6FF",
"D c #DBF7FF",
"F c #DCF4FF",
"G c #DCF5FF",
"H c #DDF6FF",
"J c #D0FAFF",
"K c #DFF8FF",
"L c #E0F7FF",
"P c #E1F7FF",
"I c #E0F8FF",
"U c #E3F9FF",
"Y c #E2FAFF",
"T c #E4FAFF",
"R c #E9FBFF",
/* pixels */
".<<<<<<&<<<<<<<<&.&&.%<<<<<<<<<<<<<<<<<<<<<<<<<<<<<<<<<<<<<<<<<.",
"<XXXXXXXXXXXXXXXXXXXXXXXXXXXXXXXXXXXXXXXXXXXXXXXXXXXXXXXXXXXXXX<",
".X%*****************&*****%**---*-*-***-----*****************%X<",
"&X*ewwwuuwwauualxlwluluuulllsxvjkskhvkxxxvvJxlauwwwulxwww7wwe*X<",
"&X*unhhnnnNNnnBZKBBZZKZnjMZBBGGIZCZGGIZZKKKYIGCnNjhnZZNjtrrha*X<",
".X*snnynnBMMnMZGKGZBZGZBNMZZZGPKGZCZIIGZZIKITIGNNNnMBZBBttrfa*X<",
"%X%lMnnMMMBMMMZGGIGMBZKZNMMBMMBGZZMMZKIBBZGITIGBnMnnNBBZttffw*X<",
".X%lBMyynMZBBBZGIIGZMZZKMtnMMNNZGCMnBDKBBZZIITKMnnnnnNBZttffw*X<",
"<X*snMMMMnMZGBBGPPGGMNMZBhfhhhnMZnMnnMBZNhNZKKKGynynnBBZZhrtw*X<",
"<X*snMMnBMMBZBBBGPIZMynMNhrrhhttnnnnhhNBNhhBKKGZnnnnnNBBZnttw*X<",
"<X*lCMMNZBMMBZZBGPIGMtynNhr8uhr8ttnnurfNhftNZZGKMMnynnBBZMMhw*X<",
"<X*sZZMNMBMnNZZBCGPGMntthfr8rtr6ruftf8ruhftrNDZZBMnnynMBMZMnw-X<",
"<X*lZZMhMBMtNZZBMFPGCyrrurr888r6678ufr88uhtrrnZZBBNnnnnBMZZnu*X&",
"&X*lKZBNnBMnhNBZCFFCMtr8rrr855782258uww88uu8rtBZBBnnMnnMnZMnw*X<",
"<X*xKGZMnnMnhthZMyCMMnr887875257$2278w8828r86rhBBnnBBNMnBBBBw*X<",
"<X*xKIGMnnnNhrfZMyynnnt865875$26$2212777127865unBnnBBNnnBMBZw*X<",
"<X-xIIKBnhnNhrftNhthhfrr6655$2122#+@:4q4::77438hBNNNMBBNNBZBu*X<",
"<X*kKIIZnfhhhfrrhtfruttrr65$$211$#@+@34q:;:3414uBBMnMZZBNBBBu*X<",
"<X*kITIZBhffhfrrrtrfrtrr865522$11#@+O@3q3>O,7117NMnnMBZBBBMBl*X<",
"<X-xKIIIMnrfhhr8rurrrrr88852$21$11#+OO:4w3O+44:2fnnnfMZMBBBMa-X<",
"&X-vGGIIZntthhr888rrrr888876411:11:@+O;>qq+ ,411rnBMnnZGZZMMl-X<",
"<X-vKGKIZnttfttr88888r887877522:11::@+++3w3O:4426rMMnnMGZZZCa-X<",
"<X*JKGZIZBnrtttr8657888767877721742:@+OO3w7,#2772rtMMyMZGGGZl*X<",
"<X-vIKZKGBnttthhr6527888477884217771@+++>7w7@#3558tCMtyZGPGGa-X<",
"<X*xITGZGBNhtttfr822688878878w7227q711@@o7u81$2766rBZnyMZGGZl*X&",
"<X*uIIIZGMMtttttf862578w7778ru87478741#@#1wu712886rhBMynZZPGl*X<",
"<X*sZIPGGBMhttthNr85278tw778rtru68888721$18tr52r8r8rnMMnMZPIl*X<",
"<X-uZPIKGZMntttnNht8678uu878rsft88rr88762$6yN868rrrrtBMntZGGl-X<",
"<X*utPPPGGCnttttnnju8888hr88rrttrrrrur88$56tntr6rtrrrBBnnnZGl*X<",
"<X-uMGPTIKZMyttthNNhr868tur88rnnttrrttrr56rrnCyrrfftfhNNnMZZk*X<",
"<X*sMCPTIPGZyttthMBNr888rfhrrthyMttthtrr6rrryCMtufhkffhMnMMMx-X<",
"<X*sZGIRRTIGntyynnBBhr888NNr8tMtGMttnnttrrrtnMCMtfNnhthnynyNx*X<",
"&X-vPTTIRRRICyyMNNVDBnrr6hBntttnZBhhhnttyttryMZZNnnCZNNCMZCZs-X<",
"<X-vPIGKRRTIZyyMhNBDZntrrhBntttnZBNNnhynnttthMBZBNnZZMyMZCZCs-X<",
"<X-vPIGKTTTRGMnMNhBBZBntrthNntttBBBBnnnyBnynnBZGZMMCZZMyCZGCs-X<",
"<X-jGPGKIITRIZMNnNNBDKNftrtMMntyBBZBnyynMMMnnMZZGBMCGGMNMZGZs-X<",
"<X*xKIKGIIITTIZMnhnBZGBNtrryZnnnnBZZyynnMMnnNBZZGZMZGKZBnZZZk-X<",
"<X*uDKGBZIITTIGMMnnMBZBBttryBBnnnBZZMnynnMMMNBBGIGGBZGGBnMZZs*X<",
"<X*uBKIBBZKKITGMnnnnMBMZtttthBBnnMZZMMnynMBMMMZDKPGBMZIZntMBu*X<",
"<X*wNKDZBZZGITIMnNNhnnBZtttthZZnMMCZMMMynMZZBMZKKIGBMZZIMyNMu*X<",
"<X*wnBBBjNMZKIKZnnnnnMMZZhrttnnZBZCBMMMBBnMZZBBGPPIZMnBZBnttw*X<",
"<X*wfhNBNhhMGKDKntynnnBBZnttynBZZZZZMMMBBMBZZZBBGPIZMnMMMtruw*X<",
"<X*wurfjhftyZZGZMMnnnnBZZBMtyMZZZZGZCMMMBBBMBZZBGKPGMyyyNfrrq*X<",
"<X*wrrrshttrNZZDMBnntnMBMZCyyMZZZZGGCCnnMMMnnZZBZGIGMhrrNfr8q*X<",
".X*qur88rhfrfMZZBBnnnnMMNZZnnMZZZZZKGBMNBBMtnZZBMGPGMntrrur84&X<",
"&X*0ru886uu88nZBZMnnMnMnMZBnnNMGZKGKGKBNnMnntMMZMCGCMnr8rrr84&X<",
".X&38ww758r88rnBBNnNBBnnBBBBnyMGGGZKKKZBnnMnntnZyMMMMyt887883-X<",
"%X*,4777137756sBBNnBBMnnBMBMMyMPIIIIIKZBMnMNtrtZMMyMnnr865773&X<",
".X&O,477:,4742wNBNNMBBBNNBBZBCZPPPGIIIIBhhNNhtttMhtfhttr66521&X<",
"%X&=@34q;;:3312uBBNnMZBBBBBBBMGPTIIGIIIZnhhhttrrhffrturr6662,&X<",
".X&=O+304>O:7218NBnhnMCMBBBBCGFFITTPITIZnhfhhfrrrfurrrrrr652,&X<",
".X&=OO:4q4o+44:3fnnnnnCZBBMBCFFFPRIPITTIBhrfhhr8rrtrrrrr8862,*X<",
"%X&=OO;:qq@ 3411ryMMnnZGZBMMGGGGGRRPIGIIBntfhhr88rrrru8888773&X<",
".X&>@=++4q1O;4426rMMnnMGGZCZZPPPFPRPGGGIZNhrhfrr6888r88888773&X<",
"%X%;;@OO,w7,:17726nMnyMZGKZZZGIPFFPRTGGIZBhrrftr8755788777789&X<",
".X%;@+O@:4w4@:2468hZMtyCGGGZZGGTPyCRTGZGGZnttthhr625688825784*X<",
".X*31:#+O7s8112766rMZNyMZKGGCFFPPFmPRRFFZZNtttthr752788877870*X.",
"&X*922:##38u712886rtBnnyMZGGFFFFPFFFPPPCGBntttttdr52778r8777e*X&",
"&X-08721118kt52r8rrrnNMnMZPGFCGPPFCFGPPFZZMhtttnnt6627ru8878q&X<",
".X*q88722$5hn8688rrrtBBnnMGPFMZZFFyCCPPFGZMnttttMht6578uu888q*X<",
"%X%9qqq4,30qww77qwqqquu8wuskxluuullaskkvxllwwqwwwwwe040qeq449*X<",
".X%%****&*****************-*-***********************&*&&***%*%X<",
".XXXXXXXXXXXXXXXXXXXXXXXXXXXXXXXXXXXXXXXXXXXXXXXXXXXXXXXXXXXXXX.",
".<<<<<<<<<<<<<<<<<<<<<<<.<<&<<<<<<<<<<<&<<<<<<<<<<<<<<<<<<.%.&&."
};
