/* XPM */
static char *_861f1dbec1c4bb5dc8348ebfb518f53kKW1pGRaNrsBAFI9[] = {
/* columns rows colors chars-per-pixel */
"64 64 211 2 ",
"   c #0182FF",
".  c #0A86FF",
"X  c #048BFF",
"o  c #0A8CFF",
"O  c #138CFF",
"+  c #1A8FFF",
"@  c #0693FF",
"#  c #0C93FF",
"$  c #0B9AFF",
"%  c #1394FF",
"&  c #1B93FF",
"*  c #129BFF",
"=  c #1B9CFF",
"-  c #2294FF",
";  c #2995FF",
":  c #239CFF",
">  c #2C9CFF",
",  c #329CFF",
"<  c #0DA3FF",
"1  c #0EACFF",
"2  c #16A2FF",
"3  c #1AA5FF",
"4  c #13ACFF",
"5  c #1BABFF",
"6  c #15B1FF",
"7  c #1DB3FF",
"8  c #14BCFF",
"9  c #1CBDFF",
"0  c #24A4FF",
"q  c #2BA4FF",
"w  c #26A9FF",
"e  c #2AADFF",
"r  c #34A4FF",
"t  c #3BA5FF",
"y  c #35ACFF",
"u  c #3BABFF",
"i  c #22B5FF",
"p  c #2DB1FF",
"a  c #25BBFF",
"s  c #29BEFF",
"d  c #33B4FF",
"f  c #3CB3FF",
"g  c #34BAFF",
"h  c #3ABDFF",
"j  c #43A4FF",
"k  c #4AA7FF",
"l  c #44AAFF",
"z  c #4CACFF",
"x  c #52ADFF",
"c  c #42B5FF",
"v  c #4DB4FF",
"b  c #45BBFF",
"n  c #4ABEFF",
"m  c #51B3FF",
"M  c #5CB5FF",
"N  c #51B9FF",
"B  c #5BBDFF",
"V  c #66B6FF",
"C  c #64BBFF",
"Z  c #6CBCFF",
"A  c #79BFFF",
"S  c #1EC4FF",
"D  c #16C8FF",
"F  c #1BD2FF",
"G  c #1DDEFF",
"H  c #21C4FF",
"J  c #2BC5FF",
"K  c #25CBFF",
"L  c #2CCBFF",
"P  c #32C5FF",
"I  c #3DC2FF",
"U  c #31CCFF",
"Y  c #3ACDFF",
"T  c #2AD3FF",
"R  c #35D3FF",
"E  c #3BD4FF",
"W  c #36D9FF",
"Q  c #3BDBFF",
"!  c #1EE1FF",
"~  c #21EBFF",
"^  c #35E1FF",
"/  c #3EE3FF",
"(  c #3EECFF",
")  c #24F4FF",
"_  c #26FCFF",
"`  c #28FFFF",
"'  c #43C6FF",
"]  c #4DC1FF",
"[  c #44CAFF",
"{  c #4ACDFF",
"}  c #54C5FF",
"|  c #5DC1FF",
" . c #55CAFF",
".. c #5BCCFF",
"X. c #42D5FF",
"o. c #4CD2FF",
"O. c #4BDDFF",
"+. c #52D4FF",
"@. c #5ED0FF",
"#. c #54DBFF",
"$. c #5CDDFF",
"%. c #63C5FF",
"&. c #6CC2FF",
"*. c #66CBFF",
"=. c #6BCBFF",
"-. c #73C5FF",
";. c #7CC3FF",
":. c #73CFFF",
">. c #7ACAFF",
",. c #62D2FF",
"<. c #6BD3FF",
"1. c #63DCFF",
"2. c #6CDBFF",
"3. c #74D1FF",
"4. c #7CD3FF",
"5. c #72DEFF",
"6. c #7ED8FF",
"7. c #44E4FF",
"8. c #4BE5FF",
"9. c #44EAFF",
"0. c #4CEBFF",
"q. c #56E2FF",
"w. c #5CE3FF",
"e. c #51EDFF",
"r. c #5EEAFF",
"t. c #46F3FF",
"y. c #4AF6FF",
"u. c #4EFDFF",
"i. c #53F2FF",
"p. c #5BF4FF",
"a. c #55F9FF",
"s. c #5CF9FF",
"d. c #61E3FF",
"f. c #69E6FF",
"g. c #64ECFF",
"h. c #6BECFF",
"j. c #73E1FF",
"k. c #7BE5FF",
"l. c #72EDFF",
"z. c #7CEAFF",
"x. c #64F3FF",
"c. c #6BF4FF",
"v. c #63FCFF",
"b. c #6DFCFF",
"n. c #73F5FF",
"m. c #74FCFF",
"M. c #7BFDFF",
"N. c #8AC5FF",
"B. c #84CBFF",
"V. c #8CCDFF",
"C. c #94CBFF",
"Z. c #99CFFF",
"A. c #84D1FF",
"S. c #8DD6FF",
"D. c #83DBFF",
"F. c #8BDCFF",
"G. c #91D2FF",
"H. c #9BD2FF",
"J. c #95DBFF",
"K. c #9BDDFF",
"L. c #A5D8FF",
"P. c #ABDAFF",
"I. c #B5DEFF",
"U. c #84E7FF",
"Y. c #8CE3FF",
"T. c #82EDFF",
"R. c #92E5FF",
"E. c #9EE1FF",
"W. c #95EAFF",
"Q. c #9BECFF",
"!. c #86F2FF",
"~. c #8BF5FF",
"^. c #83FCFF",
"/. c #8DFCFF",
"(. c #93F5FF",
"). c #9BF4FF",
"_. c #94FCFF",
"`. c #9BFDFF",
"'. c #A5E3FF",
"]. c #A8E7FF",
"[. c #A3ECFF",
"{. c #ACEAFF",
"}. c #B4E4FF",
"|. c #BAE6FF",
" X c #B3ECFF",
".X c #BEEAFF",
"XX c #A3F3FF",
"oX c #A9F6FF",
"OX c #A3FDFF",
"+X c #ADFAFF",
"@X c #B6F2FF",
"#X c #BCF3FF",
"$X c #B3FDFF",
"%X c #BBFEFF",
"&X c #C7E8FF",
"*X c #C3EDFF",
"=X c #D5EDFF",
"-X c #D9EDFF",
";X c #C1F5FF",
":X c #CCF2FF",
">X c #C5FAFF",
",X c #CCFDFF",
"<X c #D3F5FF",
"1X c #DCF3FF",
"2X c #D1FDFF",
"3X c #DBFAFF",
"4X c #E5F3FF",
"5X c #E3FDFF",
"6X c #EDFCFF",
"7X c #F2FCFF",
"8X c #FBFEFF",
/* pixels */
"p.s 7 p } 6.oX(._.c.O.5           2 O._.oX=.y e e *     X i q.(.$X#XP.E.W.!.q.7     < y.M.OXM.m.0.#.,.5.XX>X>X%X(.o.5 w ..Y.).^.",
"K     * d n n $.g.M.b.R X # 2 6 F 7.b._.[.y = # #       # [ T.`.$XE.z V E.W. .%     $ d.(.M.8.L X   o = c >.*X,X$X!.w.j.+XOX^.v.",
"P < 5 I n b w # i 8.M.m.9.n.q.9._ u.b._.(.'   @       # [ T.(.(.~.6.t + V.{.4.=   5 o.!.M.a.S     X 3 p q u &.*X,X$X_.+X,X%X_.h.",
"+.J I  .n g 5 X   < 7.M.m./.b.y.~ L { ~.$X2.w 5   . p q.(.`.c.w.f.j.B ; -.|.'.%.b #.z.oX_.g.5   X * e c : % > F.:X,X$X,X3X*XR.5.",
"} d > r y d i $     J b.OXM.e.9 X   # ..+X+X!.x.W q.!.`.`.l.X.3 s d.U.:.4.'.|.'.Y.T.oX>XQ.b % X # 3 f y % . o | {.<X,X<X&XH.B.*.",
"| f & & > q p %     4 i.^.a.8     @   % j.+X$X(.m._.$X`.^.X.$   5 e.n.`.(.[.}.*X@XXX>X,XXX0 O # % q d =       ] R.@X3X4X=XI.C.*.",
"C B z k l y f 3 X   i b.m.y.#   @ $ . w z.+X$X$X_.$X#X$XOXl.g H e.M.`._.^.).[. X:X>X,X%X(.h   o # 3 2       5 o.j.Q.,X3X6X4XZ.Z ",
", > t V M z N y % o g (._.w.o   X     L m._._._.!.2.N >.$X`.M.s.m.(.f.x.i.l.k.4.E.{.Q.U.h.E X     3 <     5 +.z.6.J.3X7X8X6XC.j ",
"O   + j k j , & % w ,.+X_.c.5       < 8.M.m.c.w.I = & B >X$X_.d.,.h i i S E $.<.F.S.%. .d.e.6     @ #   # [ k.Y.A.L.3X7X6X5X|.V ",
"k . O , - - ; & v T.$X_./.M.X.9 8 K 0.M.m.u.7 $   X e 2.oX#XB q 0 5 $     7 X.f.k.3.> O } f.0.T H i e K o.j.Y.S.H.}.,X5X<X:X3XL.",
"F.-     O . + B `._._._.m.M.m.u.` u.m.m.u.8   X   $ X.c.j.u r % = 5 #     # [ !.Y.x & O l T.M.v.s.n.!.d.z.D.C z -.;X$X,X#X>X>XOX",
"!.z.3.%.>.S.D.T.m.g.q.#.W 7.v.u._ u.m.d.I         S e.g.} o - : q w $     X e 2.:.r & . , F.`./.M.~.[.T.Q.-.t &.R.+X_.$XXXQ.[.!.",
"w.M._._.+X+XOXM.9.2 o     @ O.u._ a.b.g .       X R c.{ %   & : : = # .     * { f o     : ,.~.m.c.1.<.k.5.%.=.W.`._.m.!.@.q = e ",
"5 Q g.c./._.^.u.8           K u._ u.W X       @ J d.R #   % % = % % % o   . 3 $.[ %   # d @.w.U 3 P b e e @.~.^.M.d.J g o       ",
"  X * P x.m.b.7.X   # @ @   6 u._ a.$     X 1 O.b.a.1   X # # $ # # 2 $     $ r.i.H o # i P i     ^ 8.a P c.b.x.0.7 X X     o   ",
"X X   @ ^ u.u.T     X @ $   8 u.u.T       9 t.u.u.(     @   @ $ @ @ $ X     H u.a.( W T T K K     u.a.u.y.u.u.W 9     $ X   $ < ",
"        F _ _ G             ! u._ 8 X $ $ G _ _ _ D   X X   @ @ X   X   @ D _ _ ` ` ` ` ` _ ` ` ` ! ` ` ) ) _ F <     X $ X @ $ ",
"# $ @   L u.a./ X     X   4 b.u.) U R / ( u.u.u.y.5 # 2   @ # #       X J y.u.u.t.t.u.u.y.y.u.a.y.2 J t.( / 9.i           X @ $ ",
"% o # . p c.m.x.=   X % s 0.m.u.` u.m.m.m.m.m.m.m.H X #     X   X   X Q b.c.#.o.' w d w.r.q.d.m.c.w * { #.c.7.4     X X       $ ",
"% . o o q T._.!.y o : @.c._.b.u.` u.m.b.a.0.y.M.b.R       X     X 7 9.m./.<.% : q % o ] j...f._.r.* X 5 [ h.8.<       X X X # % ",
"+   o & | +X$X$XQ.W.T.$X`._.b.u._ u.a.L 4 $ 4 7.M.s.K 7 = o # H Q i.m.~.%.> . y | y   N 3.v ,.m.L     X 2 +.w.5       X #   o O ",
"& O & - &.,X,X,X$X`._.`.`./.m.a._ u.F         $ 0.M.s.c.z.w.9.s.b.M.(.4..   - Z A.C & m -.v Y._.I       o n d.P $     X # o o o ",
"  - > - Z 3X,X%X+Xb.r.+.5.!.m.u._ W $   @ X X   +._.^._.+X_.m.^.~.~.+XA.+ z ;.B.B.V.-.V.P.}.>X$X2.o   X   f 5.$.E 4   X o   o   ",
"o q r + B.,X%X_.2.s 2   % 1.c.( 8 * X X     o o ..$XOX$X/.j.k.T.oXoX@XZ k Z.L.V x '.>X$X,X3X,X$XT.=   X . e <.f.w.J         X   ",
"q v u , K.%X`.d.0     < P l.i.8 X $ * @       # <.$X$X_.w.e p } XX>X:XV.A P.P.A ;.+X$X`.$X,X$X`.M.X.#     5 o.2.w.Y $       # = ",
"v M x M Q.(.w.w #   X J g.m.Q # @ 2 % * X . X : F.+X~.o.5 X * p !.$X,X3X1X1X<X#X$X`._.m.!.W.XX_.M.v.K     7 { ,.2.$.Y 4 # # = d ",
"C Z >.XXT.[ # .   X s x._.m.H X @ * % $     # 5.$X~.I $     X # d._.%X2X3X<X2X$X_.n.+.R [ q n { g.m.v.K 5 h } =.4.5.1.E [ h c r ",
".X=X<X#X:.o . 5 K / h._.`.n.a X $ # o     5 0.M._.j.o     X # % j.$X,X3X|. X%X(.g.s # @ # % o % 5 U c.v.c.j.=.z z Y.(.M./.~.W.J.",
"7X7X1XL.t + = +.s.m._.$X_.d.*   X X     X W m._./.[   # o X .   D.%X,X*XG.Q.`.m.Q #       #       X 7.m._.+XK.S.J.,X$X`.$X%X,X5X",
"7X7X=XZ.Z J.Y.(.M.^.`.$X_.c.5     X 3 H / m._._.n.p   $ .     + [.$XoX{.}.@X+X(.#.#   @ X % o #   X g !.$X,X3X,X>X+X~.!.!.+X,X5X",
"5X5X-X&X|.#XoX~.g.g.n.OXOX/.8.T F / x.s.m._.U.m.i.<   X   . o N )._.!.R.{.:X>X$X!.p # * * = % o X X : Y.,X3X2XXXY.2.{ I ' ,.W.>X",
",X<X&X*X XXX!.+.a i Q n.$X_.m.u.` u.m.M.`.$XQ.(.c.5   . o q *.W.M.g.w.j.R.@X,X$X_.j.w # X # #     . c oX,X#XA...n g 5 2 2 p 5.oX",
"$X@XP.E.Q.T.w.5     1 0.M./.b.u.~ / o.2.XX>X>X$X(.o.5 e ..Y.`.^.e.J i p  .6.XX_.(.n.O.5         . 2 +._.$X*.y e e * X   X i #.(.",
"$XR.z V J.W...%     $ g.OXM.e.K X   o = c >.*X,X$X!.q.j.+XOX/.v.K     * g b n $.c.n.b.R X # 2 6 R w._.$X[.y & % #       # ' T.`.",
"(.6.j + A.{.4.=   5 o.!.M.e.S     X 2 p q u &.*X,X$X_.+X,X%X(.f.P < 5 I n b e o i 7.M.m.9.g.w.y.m.(.+X$X_.'   @       # [ T.(./.",
"f.5.B - -..X'.%.b +.z.+X(.h.5   X $ w v : % > S.<X>X$X,X3X#XR.2. .J I  .n g 5 X   2 7.M.m._.M.s.9.[ @.oX$X2.w 5     p #./.`.l.r.",
"a d.U.>.>.'.|.'.Y.T.oX+X!.g # X @ 2 p p %   o | {.<X,X3X&XH.B.=.} d q r u d i $     J b._.m.7.a @   o ..+X+X!.g.Q w.!._.`.l.X.3 ",
"6 e.n.`.).[. X*X@XXX>X$X!.= # @ @ 2 p = .     ] R.@X3X3X=XI.G.&.| f & & > q p $     4 a.^.a.8     X   % j.$X$X_.m._.$X`.^.X.$   ",
"e.M.`.`.^.`.[.}.:X>X,X$X~.I   X @ * 4       2 o.j.Q.,X3X7X4XZ.Z C B z k l r c 3 X   i c.m.y.$   @ $ X w z.+X+X$X_.+X#X$XOXl.s K ",
"n.(.g.x.i.h.U.4.'.{.Q.T.d.R X     2 <     6 #.z.6.J.3X7X8X7XN.j , > t V M v v r % o g /._.w.#   X     L b._._._.!.2.N >.@X`.^.p.",
",.b i 7 9 X.$.<.D.G.%. .d.e.5     @ #   # [ k.Y.A.K.3X7X7X7X|.V O   + k k j , & + w ,.+X_.~.w       < 8.M.m.b.w.I 2 = B >X$X_.g.",
"0 5 $     6 X.f.k.3.> O } l.e.T D 7 w J o.j.Y.J.G.}.5X5X1X1X3XP.l . O , - ; - + v !.+X$X_._.2.g s K 0.M.m.u.5 # . . w 2.oX@X| > ",
"= 5 @     # [ T.Y.m + O u l.c.u._ y.c.x.z.D.N k ;.3X,X,X:X3X>X$XF.-     O o & B `._._._.m.m.`./.m.v.M.m.u.8   X   $ Q h.j.u q & ",
"q w $ X   X p 5.:.t + O q $.m.u._ y.d.z.W.-.l ;.E.>X$X$X@X|.Q.~.!.U.:.B B.S.D.T.m.g.q.#.Q / m.`.`.^._.d.I .       9 p.g.} . ; : ",
": = #       2 { f o     :  .x.u.) Q o.5.D.-.V. X+X+X/.!.3.t & e w.m._._.%X$X`.M.8.5 X     @ / M.`.`.b.g X       X R c.o.%   - : ",
"& % = o     3 1.=.-   + c $.8.K < J I y y B.#X+X_.z.' g o       5 Q g.c.`.`.m.u.8           K v.^.m.R .       # J w.R #   % & : ",
"% % 3 %     & T.XXC O & f I 7     ^ 8.h } $X$X/.d.p X X   . X X   X * J b.`.M.9.X   # @ X   4 s.M.u.<     X 4 W m.y.1   X # % & ",
"% % * X     J m._.).4.<.@.Y K     u.m./.XX$X(.w.a     $ X   = 2 @     @ 7.m.b.T     X # $ X i m.m.R       9 i.M.m.9.    @   % & ",
"o .     @ J c._.$X,X,X>X+X/.m.u.` Q b._.oX!.b.U <     X # # # = .       T v.m.Q     .       ^ b.b.g X $ $ 7.M.^.s.F   X o   % = ",
"      X L c._.$X#X<X:X%X`.^.b.u._ 2 [ !.Y.z.c.i             o = # $ @   R m._.w.X     X   4 a.M.~.,.{ 7.9.m.`.`.n.5 @ 2   # o @ ",
"    X Q n.~.S.B.B.k M R.U.d.e.a.) 3 * { 2.n.8.4     X X       % % O #   e ~.$X!.=   o % J 0.^.OX%X+X(.M.M.M.^._.m.H . #     X X ",
"X 9 9.m.~.D.- , k - + %.k. .8.u.~ * X 5 [ h.9.<   X   X @ X # % % . o o q Q.,XXXy . > ,.c.M.`.$X$X`.M.m.a.0.i.M.b.W             ",
"Q i.m.~.*., O k A k   N <.d X.a.D       3 +.q.5       X #   o o O   o & | >X5X,XQ.W.Q.+X_.OX%X+X_.M.a.L 4 $ 4 7.M.p.K 7 = X $ S ",
"m.M.(.6..   ; A H.Z - v %.y e.u.D       o b d.P $     X # o o O % O & - -.3X5X,X$X`._._.%X%X$X`.M.a.F         $ 0.M.v.x.k.w.8.s.",
"~.~.oXA.+ x N.C.C.N.-.4.Y.j.c.u.G #   X   f 5.$.E 4   X o   X   . - > - Z 3X,X%X$Xb.d.#.1.oX$X`.m.W $   X X X . o._./._.$X_.m.^.",
"oX+X XZ l H.P.V x ].@X$X`./.m.u.~ %   X X e 2.j.w.J         X   o q r + V.2X$X(.2.i 2 X % 2.$XQ.] = X   X   X o ..$XOX$X/.j.k.T.",
"XX,X:XV.;.P.P.A >.$X$X`.`.M.b.u.) R #     5 o.2.$.R $       # = 0 v j , K.$X`.1.0     < P h.!.v . = 2 X     . o 1.$X$X_.w.e p  .",
"T.$X,X3X-X-X<X#X@X`._.m.~.g.i.u.` u.T     5 [ ,.2.$.Y 5 # # : d v B m M Q._.$.i X . X J g._.4.- & q % * X   X : F.$X~.o.5 X * p ",
"d.`.$X2X3X3X2X$X_.n.+.R [ 0 s K ) u.p.T 5 I  .=.4.5.d.Q [ g f r C Z >.[.T.[ *     X s x._.$X&.. & : # *     # j.+X/.I #       $ ",
"j.$X,X3X|.|.%X(.g.s # @ # % X $ < U c.v.c.j.=.v m F.~.M.(.~.W.J..X=X:X#X>.o . 5 K / c.`.$X>XB O & % o     6 8.M._.j.X     @ # % ",
"D.%X,X*XS.Q.`.m.W #       o       X / m._.+XJ.H.J.>X$XOX$X$X2X5X7X7X1XK.t & & +.p.m._.$X,X].:   % X     X W M._.(.{   O o .   . ",
"[.$XoX{.}. X+X/.#.#   @ X = X @   X g !.$X,X3X:X;X$X/.T.!.oX,X5X7X7X-XZ.Z J.R.(.M.^.`.$X,X>Xj .   . 3 S Q m._._.n.i   $ .     O ",
"(._.!.R.{.:X>X$X!.p # # $ = # X X   = j.+X>X,XXXY.2.[ [ ' @.W.>X5X4X-X&X|.#XoX!.g.g.n.OX%X2XR.3.,.j.n.v.m.`.k.M.i.<   X   . o v ",
"^.g.w.j.R.@X,X$X`.j.e # o # # X     g /.$X#XD...b g 5 2 2 d 5.oX,X3X&X*X@XXX!.+.a i Q n.OX%XOX_.m._._.M.`.$XQ._.c.5   . o q *.(."
};
